<?xml version="1.0" encoding="UTF-8" standalone="no"?>
<!-- Created with Inkscape (http://www.inkscape.org/) -->

<svg
   width="4in"
   height="6in"
   viewBox="0 0 101.6 152.4"
   version="1.1"
   id="svg5"
   inkscape:version="1.2 (1:1.2.1+202207142221+cd75a1ee6d)"
   sodipodi:docname="main.svg"
   xml:space="preserve"
   xmlns:inkscape="http://www.inkscape.org/namespaces/inkscape"
   xmlns:sodipodi="http://sodipodi.sourceforge.net/DTD/sodipodi-0.dtd"
   xmlns:xlink="http://www.w3.org/1999/xlink"
   xmlns="http://www.w3.org/2000/svg"
   xmlns:svg="http://www.w3.org/2000/svg"><sodipodi:namedview
     id="namedview7"
     pagecolor="#ffffff"
     bordercolor="#666666"
     borderopacity="1.0"
     inkscape:showpageshadow="2"
     inkscape:pageopacity="0.0"
     inkscape:pagecheckerboard="0"
     inkscape:deskcolor="#d1d1d1"
     inkscape:document-units="in"
     showgrid="false"
     inkscape:zoom="2.2859308"
     inkscape:cx="88.1479"
     inkscape:cy="127.95663"
     inkscape:window-width="1848"
     inkscape:window-height="1016"
     inkscape:window-x="72"
     inkscape:window-y="27"
     inkscape:window-maximized="1"
     inkscape:current-layer="layer1"
     showguides="true"><sodipodi:guide
       position="109.20557,152.4"
       orientation="0,1"
       id="guide129"
       inkscape:locked="false"
       inkscape:label=""
       inkscape:color="rgb(0,134,229)" /><sodipodi:guide
       position="105.74657,101.6"
       orientation="0,1"
       id="guide181"
       inkscape:locked="false"
       inkscape:label=""
       inkscape:color="rgb(0,134,229)" /><sodipodi:guide
       position="126.00643,50.8"
       orientation="0,1"
       id="guide183"
       inkscape:locked="false"
       inkscape:label=""
       inkscape:color="rgb(0,134,229)" /><sodipodi:guide
       position="0,14.04"
       orientation="-1,0"
       id="guide185"
       inkscape:locked="false"
       inkscape:label=""
       inkscape:color="rgb(0,134,229)" /></sodipodi:namedview><defs
     id="defs2"><rect
       x="-331.57826"
       y="96.253842"
       width="225.29083"
       height="179.92657"
       id="rect2385" /><style
       type="text/css"
       id="style189">*{stroke-linecap:butt;stroke-linejoin:round;}</style><path
       d="M 0 0  L 0 3.5  "
       id="mca52abd09a"
       style="stroke:#000000;stroke-width:0.8;" /><path
       d="M 2834 3397  L 2834 2853  Q 2591 2978 2328 3040  Q 2066 3103 1784 3103  Q 1356 3103 1142 2972  Q 928 2841 928 2578  Q 928 2378 1081 2264  Q 1234 2150 1697 2047  L 1894 2003  Q 2506 1872 2764 1633  Q 3022 1394 3022 966  Q 3022 478 2636 193  Q 2250 -91 1575 -91  Q 1294 -91 989 -36  Q 684 19 347 128  L 347 722  Q 666 556 975 473  Q 1284 391 1588 391  Q 1994 391 2212 530  Q 2431 669 2431 922  Q 2431 1156 2273 1281  Q 2116 1406 1581 1522  L 1381 1569  Q 847 1681 609 1914  Q 372 2147 372 2553  Q 372 3047 722 3315  Q 1072 3584 1716 3584  Q 2034 3584 2315 3537  Q 2597 3491 2834 3397  z "
       id="DejaVuSans-73"
       transform="scale(0.015625)" /><path
       d="M 1172 4494  L 1172 3500  L 2356 3500  L 2356 3053  L 1172 3053  L 1172 1153  Q 1172 725 1289 603  Q 1406 481 1766 481  L 2356 481  L 2356 0  L 1766 0  Q 1100 0 847 248  Q 594 497 594 1153  L 594 3053  L 172 3053  L 172 3500  L 594 3500  L 594 4494  L 1172 4494  z "
       id="DejaVuSans-74"
       transform="scale(0.015625)" /><path
       d="M 2194 1759  Q 1497 1759 1228 1600  Q 959 1441 959 1056  Q 959 750 1161 570  Q 1363 391 1709 391  Q 2188 391 2477 730  Q 2766 1069 2766 1631  L 2766 1759  L 2194 1759  z M 3341 1997  L 3341 0  L 2766 0  L 2766 531  Q 2569 213 2275 61  Q 1981 -91 1556 -91  Q 1019 -91 701 211  Q 384 513 384 1019  Q 384 1609 779 1909  Q 1175 2209 1959 2209  L 2766 2209  L 2766 2266  Q 2766 2663 2505 2880  Q 2244 3097 1772 3097  Q 1472 3097 1187 3025  Q 903 2953 641 2809  L 641 3341  Q 956 3463 1253 3523  Q 1550 3584 1831 3584  Q 2591 3584 2966 3190  Q 3341 2797 3341 1997  z "
       id="DejaVuSans-61"
       transform="scale(0.015625)" /><path
       d="M 3597 1894  L 3597 1613  L 953 1613  Q 991 1019 1311 708  Q 1631 397 2203 397  Q 2534 397 2845 478  Q 3156 559 3463 722  L 3463 178  Q 3153 47 2828 -22  Q 2503 -91 2169 -91  Q 1331 -91 842 396  Q 353 884 353 1716  Q 353 2575 817 3079  Q 1281 3584 2069 3584  Q 2775 3584 3186 3129  Q 3597 2675 3597 1894  z M 3022 2063  Q 3016 2534 2758 2815  Q 2500 3097 2075 3097  Q 1594 3097 1305 2825  Q 1016 2553 972 2059  L 3022 2063  z "
       id="DejaVuSans-65"
       transform="scale(0.015625)" /><path
       d="M 794 531  L 1825 531  L 1825 4091  L 703 3866  L 703 4441  L 1819 4666  L 2450 4666  L 2450 531  L 3481 531  L 3481 0  L 794 0  L 794 531  z "
       id="DejaVuSans-31"
       transform="scale(0.015625)" /><path
       d="M 1228 531  L 3431 531  L 3431 0  L 469 0  L 469 531  Q 828 903 1448 1529  Q 2069 2156 2228 2338  Q 2531 2678 2651 2914  Q 2772 3150 2772 3378  Q 2772 3750 2511 3984  Q 2250 4219 1831 4219  Q 1534 4219 1204 4116  Q 875 4013 500 3803  L 500 4441  Q 881 4594 1212 4672  Q 1544 4750 1819 4750  Q 2544 4750 2975 4387  Q 3406 4025 3406 3419  Q 3406 3131 3298 2873  Q 3191 2616 2906 2266  Q 2828 2175 2409 1742  Q 1991 1309 1228 531  z "
       id="DejaVuSans-32"
       transform="scale(0.015625)" /><path
       d="M 2597 2516  Q 3050 2419 3304 2112  Q 3559 1806 3559 1356  Q 3559 666 3084 287  Q 2609 -91 1734 -91  Q 1441 -91 1130 -33  Q 819 25 488 141  L 488 750  Q 750 597 1062 519  Q 1375 441 1716 441  Q 2309 441 2620 675  Q 2931 909 2931 1356  Q 2931 1769 2642 2001  Q 2353 2234 1838 2234  L 1294 2234  L 1294 2753  L 1863 2753  Q 2328 2753 2575 2939  Q 2822 3125 2822 3475  Q 2822 3834 2567 4026  Q 2313 4219 1838 4219  Q 1578 4219 1281 4162  Q 984 4106 628 3988  L 628 4550  Q 988 4650 1302 4700  Q 1616 4750 1894 4750  Q 2613 4750 3031 4423  Q 3450 4097 3450 3541  Q 3450 3153 3228 2886  Q 3006 2619 2597 2516  z "
       id="DejaVuSans-33"
       transform="scale(0.015625)" /><path
       d="M 2419 4116  L 825 1625  L 2419 1625  L 2419 4116  z M 2253 4666  L 3047 4666  L 3047 1625  L 3713 1625  L 3713 1100  L 3047 1100  L 3047 0  L 2419 0  L 2419 1100  L 313 1100  L 313 1709  L 2253 4666  z "
       id="DejaVuSans-34"
       transform="scale(0.015625)" /><path
       d="M 691 4666  L 3169 4666  L 3169 4134  L 1269 4134  L 1269 2991  Q 1406 3038 1543 3061  Q 1681 3084 1819 3084  Q 2600 3084 3056 2656  Q 3513 2228 3513 1497  Q 3513 744 3044 326  Q 2575 -91 1722 -91  Q 1428 -91 1123 -41  Q 819 9 494 109  L 494 744  Q 775 591 1075 516  Q 1375 441 1709 441  Q 2250 441 2565 725  Q 2881 1009 2881 1497  Q 2881 1984 2565 2268  Q 2250 2553 1709 2553  Q 1456 2553 1204 2497  Q 953 2441 691 2322  L 691 4666  z "
       id="DejaVuSans-35"
       transform="scale(0.015625)" /><path
       d="M 0 0  L -3.5 0  "
       id="m56b71991db"
       style="stroke:#000000;stroke-width:0.8;" /><path
       d="M 2034 4250  Q 1547 4250 1301 3770  Q 1056 3291 1056 2328  Q 1056 1369 1301 889  Q 1547 409 2034 409  Q 2525 409 2770 889  Q 3016 1369 3016 2328  Q 3016 3291 2770 3770  Q 2525 4250 2034 4250  z M 2034 4750  Q 2819 4750 3233 4129  Q 3647 3509 3647 2328  Q 3647 1150 3233 529  Q 2819 -91 2034 -91  Q 1250 -91 836 529  Q 422 1150 422 2328  Q 422 3509 836 4129  Q 1250 4750 2034 4750  z "
       id="DejaVuSans-30"
       transform="scale(0.015625)" /><path
       d="M 684 794  L 1344 794  L 1344 0  L 684 0  L 684 794  z "
       id="DejaVuSans-2e"
       transform="scale(0.015625)" /><path
       d="M 2113 2584  Q 1688 2584 1439 2293  Q 1191 2003 1191 1497  Q 1191 994 1439 701  Q 1688 409 2113 409  Q 2538 409 2786 701  Q 3034 994 3034 1497  Q 3034 2003 2786 2293  Q 2538 2584 2113 2584  z M 3366 4563  L 3366 3988  Q 3128 4100 2886 4159  Q 2644 4219 2406 4219  Q 1781 4219 1451 3797  Q 1122 3375 1075 2522  Q 1259 2794 1537 2939  Q 1816 3084 2150 3084  Q 2853 3084 3261 2657  Q 3669 2231 3669 1497  Q 3669 778 3244 343  Q 2819 -91 2113 -91  Q 1303 -91 875 529  Q 447 1150 447 2328  Q 447 3434 972 4092  Q 1497 4750 2381 4750  Q 2619 4750 2861 4703  Q 3103 4656 3366 4563  z "
       id="DejaVuSans-36"
       transform="scale(0.015625)" /><path
       d="M 628 4666  L 3309 4666  L 3309 4134  L 1259 4134  L 1259 2759  L 3109 2759  L 3109 2228  L 1259 2228  L 1259 0  L 628 0  L 628 4666  z "
       id="DejaVuSans-46"
       transform="scale(0.015625)" /><path
       d="M 2631 2963  Q 2534 3019 2420 3045  Q 2306 3072 2169 3072  Q 1681 3072 1420 2755  Q 1159 2438 1159 1844  L 1159 0  L 581 0  L 581 3500  L 1159 3500  L 1159 2956  Q 1341 3275 1631 3429  Q 1922 3584 2338 3584  Q 2397 3584 2469 3576  Q 2541 3569 2628 3553  L 2631 2963  z "
       id="DejaVuSans-72"
       transform="scale(0.015625)" /><path
       d="M 947 1747  Q 947 1113 1208 752  Q 1469 391 1925 391  Q 2381 391 2643 752  Q 2906 1113 2906 1747  Q 2906 2381 2643 2742  Q 2381 3103 1925 3103  Q 1469 3103 1208 2742  Q 947 2381 947 1747  z M 2906 525  Q 2725 213 2448 61  Q 2172 -91 1784 -91  Q 1150 -91 751 415  Q 353 922 353 1747  Q 353 2572 751 3078  Q 1150 3584 1784 3584  Q 2172 3584 2448 3432  Q 2725 3281 2906 2969  L 2906 3500  L 3481 3500  L 3481 -1331  L 2906 -1331  L 2906 525  z "
       id="DejaVuSans-71"
       transform="scale(0.015625)" /><path
       d="M 544 1381  L 544 3500  L 1119 3500  L 1119 1403  Q 1119 906 1312 657  Q 1506 409 1894 409  Q 2359 409 2629 706  Q 2900 1003 2900 1516  L 2900 3500  L 3475 3500  L 3475 0  L 2900 0  L 2900 538  Q 2691 219 2414 64  Q 2138 -91 1772 -91  Q 1169 -91 856 284  Q 544 659 544 1381  z M 1991 3584  L 1991 3584  z "
       id="DejaVuSans-75"
       transform="scale(0.015625)" /><path
       d="M 3513 2113  L 3513 0  L 2938 0  L 2938 2094  Q 2938 2591 2744 2837  Q 2550 3084 2163 3084  Q 1697 3084 1428 2787  Q 1159 2491 1159 1978  L 1159 0  L 581 0  L 581 3500  L 1159 3500  L 1159 2956  Q 1366 3272 1645 3428  Q 1925 3584 2291 3584  Q 2894 3584 3203 3211  Q 3513 2838 3513 2113  z "
       id="DejaVuSans-6e"
       transform="scale(0.015625)" /><path
       d="M 3122 3366  L 3122 2828  Q 2878 2963 2633 3030  Q 2388 3097 2138 3097  Q 1578 3097 1268 2742  Q 959 2388 959 1747  Q 959 1106 1268 751  Q 1578 397 2138 397  Q 2388 397 2633 464  Q 2878 531 3122 666  L 3122 134  Q 2881 22 2623 -34  Q 2366 -91 2075 -91  Q 1284 -91 818 406  Q 353 903 353 1747  Q 353 2603 823 3093  Q 1294 3584 2113 3584  Q 2378 3584 2631 3529  Q 2884 3475 3122 3366  z "
       id="DejaVuSans-63"
       transform="scale(0.015625)" /><path
       d="M 2059 -325  Q 1816 -950 1584 -1140  Q 1353 -1331 966 -1331  L 506 -1331  L 506 -850  L 844 -850  Q 1081 -850 1212 -737  Q 1344 -625 1503 -206  L 1606 56  L 191 3500  L 800 3500  L 1894 763  L 2988 3500  L 3597 3500  L 2059 -325  z "
       id="DejaVuSans-79"
       transform="scale(0.015625)" /><clipPath
       id="pf272da422b"><rect
         height="105.4"
         width="229.525"
         x="47.675"
         y="10.8"
         id="rect457" /></clipPath><style
       type="text/css"
       id="style785">*{stroke-linecap:butt;stroke-linejoin:round;}</style><path
       d="M 0 0  L 0 3.5  "
       id="m275af7c0e0"
       style="stroke:#000000;stroke-width:0.8;" /><path
       d="M 2834 3397  L 2834 2853  Q 2591 2978 2328 3040  Q 2066 3103 1784 3103  Q 1356 3103 1142 2972  Q 928 2841 928 2578  Q 928 2378 1081 2264  Q 1234 2150 1697 2047  L 1894 2003  Q 2506 1872 2764 1633  Q 3022 1394 3022 966  Q 3022 478 2636 193  Q 2250 -91 1575 -91  Q 1294 -91 989 -36  Q 684 19 347 128  L 347 722  Q 666 556 975 473  Q 1284 391 1588 391  Q 1994 391 2212 530  Q 2431 669 2431 922  Q 2431 1156 2273 1281  Q 2116 1406 1581 1522  L 1381 1569  Q 847 1681 609 1914  Q 372 2147 372 2553  Q 372 3047 722 3315  Q 1072 3584 1716 3584  Q 2034 3584 2315 3537  Q 2597 3491 2834 3397  z "
       id="DejaVuSans-73-9"
       transform="scale(0.015625)" /><path
       d="M 1172 4494  L 1172 3500  L 2356 3500  L 2356 3053  L 1172 3053  L 1172 1153  Q 1172 725 1289 603  Q 1406 481 1766 481  L 2356 481  L 2356 0  L 1766 0  Q 1100 0 847 248  Q 594 497 594 1153  L 594 3053  L 172 3053  L 172 3500  L 594 3500  L 594 4494  L 1172 4494  z "
       id="DejaVuSans-74-3"
       transform="scale(0.015625)" /><path
       d="M 2194 1759  Q 1497 1759 1228 1600  Q 959 1441 959 1056  Q 959 750 1161 570  Q 1363 391 1709 391  Q 2188 391 2477 730  Q 2766 1069 2766 1631  L 2766 1759  L 2194 1759  z M 3341 1997  L 3341 0  L 2766 0  L 2766 531  Q 2569 213 2275 61  Q 1981 -91 1556 -91  Q 1019 -91 701 211  Q 384 513 384 1019  Q 384 1609 779 1909  Q 1175 2209 1959 2209  L 2766 2209  L 2766 2266  Q 2766 2663 2505 2880  Q 2244 3097 1772 3097  Q 1472 3097 1187 3025  Q 903 2953 641 2809  L 641 3341  Q 956 3463 1253 3523  Q 1550 3584 1831 3584  Q 2591 3584 2966 3190  Q 3341 2797 3341 1997  z "
       id="DejaVuSans-61-6"
       transform="scale(0.015625)" /><path
       d="M 3597 1894  L 3597 1613  L 953 1613  Q 991 1019 1311 708  Q 1631 397 2203 397  Q 2534 397 2845 478  Q 3156 559 3463 722  L 3463 178  Q 3153 47 2828 -22  Q 2503 -91 2169 -91  Q 1331 -91 842 396  Q 353 884 353 1716  Q 353 2575 817 3079  Q 1281 3584 2069 3584  Q 2775 3584 3186 3129  Q 3597 2675 3597 1894  z M 3022 2063  Q 3016 2534 2758 2815  Q 2500 3097 2075 3097  Q 1594 3097 1305 2825  Q 1016 2553 972 2059  L 3022 2063  z "
       id="DejaVuSans-65-0"
       transform="scale(0.015625)" /><path
       d="M 794 531  L 1825 531  L 1825 4091  L 703 3866  L 703 4441  L 1819 4666  L 2450 4666  L 2450 531  L 3481 531  L 3481 0  L 794 0  L 794 531  z "
       id="DejaVuSans-31-6"
       transform="scale(0.015625)" /><path
       d="M 1228 531  L 3431 531  L 3431 0  L 469 0  L 469 531  Q 828 903 1448 1529  Q 2069 2156 2228 2338  Q 2531 2678 2651 2914  Q 2772 3150 2772 3378  Q 2772 3750 2511 3984  Q 2250 4219 1831 4219  Q 1534 4219 1204 4116  Q 875 4013 500 3803  L 500 4441  Q 881 4594 1212 4672  Q 1544 4750 1819 4750  Q 2544 4750 2975 4387  Q 3406 4025 3406 3419  Q 3406 3131 3298 2873  Q 3191 2616 2906 2266  Q 2828 2175 2409 1742  Q 1991 1309 1228 531  z "
       id="DejaVuSans-32-8"
       transform="scale(0.015625)" /><path
       d="M 2597 2516  Q 3050 2419 3304 2112  Q 3559 1806 3559 1356  Q 3559 666 3084 287  Q 2609 -91 1734 -91  Q 1441 -91 1130 -33  Q 819 25 488 141  L 488 750  Q 750 597 1062 519  Q 1375 441 1716 441  Q 2309 441 2620 675  Q 2931 909 2931 1356  Q 2931 1769 2642 2001  Q 2353 2234 1838 2234  L 1294 2234  L 1294 2753  L 1863 2753  Q 2328 2753 2575 2939  Q 2822 3125 2822 3475  Q 2822 3834 2567 4026  Q 2313 4219 1838 4219  Q 1578 4219 1281 4162  Q 984 4106 628 3988  L 628 4550  Q 988 4650 1302 4700  Q 1616 4750 1894 4750  Q 2613 4750 3031 4423  Q 3450 4097 3450 3541  Q 3450 3153 3228 2886  Q 3006 2619 2597 2516  z "
       id="DejaVuSans-33-0"
       transform="scale(0.015625)" /><path
       d="M 2419 4116  L 825 1625  L 2419 1625  L 2419 4116  z M 2253 4666  L 3047 4666  L 3047 1625  L 3713 1625  L 3713 1100  L 3047 1100  L 3047 0  L 2419 0  L 2419 1100  L 313 1100  L 313 1709  L 2253 4666  z "
       id="DejaVuSans-34-5"
       transform="scale(0.015625)" /><path
       d="M 691 4666  L 3169 4666  L 3169 4134  L 1269 4134  L 1269 2991  Q 1406 3038 1543 3061  Q 1681 3084 1819 3084  Q 2600 3084 3056 2656  Q 3513 2228 3513 1497  Q 3513 744 3044 326  Q 2575 -91 1722 -91  Q 1428 -91 1123 -41  Q 819 9 494 109  L 494 744  Q 775 591 1075 516  Q 1375 441 1709 441  Q 2250 441 2565 725  Q 2881 1009 2881 1497  Q 2881 1984 2565 2268  Q 2250 2553 1709 2553  Q 1456 2553 1204 2497  Q 953 2441 691 2322  L 691 4666  z "
       id="DejaVuSans-35-8"
       transform="scale(0.015625)" /><path
       d="M 0 0  L -3.5 0  "
       id="mdf36713bb5"
       style="stroke:#000000;stroke-width:0.8;" /><path
       d="M 2034 4250  Q 1547 4250 1301 3770  Q 1056 3291 1056 2328  Q 1056 1369 1301 889  Q 1547 409 2034 409  Q 2525 409 2770 889  Q 3016 1369 3016 2328  Q 3016 3291 2770 3770  Q 2525 4250 2034 4250  z M 2034 4750  Q 2819 4750 3233 4129  Q 3647 3509 3647 2328  Q 3647 1150 3233 529  Q 2819 -91 2034 -91  Q 1250 -91 836 529  Q 422 1150 422 2328  Q 422 3509 836 4129  Q 1250 4750 2034 4750  z "
       id="DejaVuSans-30-1"
       transform="scale(0.015625)" /><path
       d="M 684 794  L 1344 794  L 1344 0  L 684 0  L 684 794  z "
       id="DejaVuSans-2e-2"
       transform="scale(0.015625)" /><path
       d="M 2113 2584  Q 1688 2584 1439 2293  Q 1191 2003 1191 1497  Q 1191 994 1439 701  Q 1688 409 2113 409  Q 2538 409 2786 701  Q 3034 994 3034 1497  Q 3034 2003 2786 2293  Q 2538 2584 2113 2584  z M 3366 4563  L 3366 3988  Q 3128 4100 2886 4159  Q 2644 4219 2406 4219  Q 1781 4219 1451 3797  Q 1122 3375 1075 2522  Q 1259 2794 1537 2939  Q 1816 3084 2150 3084  Q 2853 3084 3261 2657  Q 3669 2231 3669 1497  Q 3669 778 3244 343  Q 2819 -91 2113 -91  Q 1303 -91 875 529  Q 447 1150 447 2328  Q 447 3434 972 4092  Q 1497 4750 2381 4750  Q 2619 4750 2861 4703  Q 3103 4656 3366 4563  z "
       id="DejaVuSans-36-0"
       transform="scale(0.015625)" /><path
       d="M 628 4666  L 3309 4666  L 3309 4134  L 1259 4134  L 1259 2759  L 3109 2759  L 3109 2228  L 1259 2228  L 1259 0  L 628 0  L 628 4666  z "
       id="DejaVuSans-46-6"
       transform="scale(0.015625)" /><path
       d="M 2631 2963  Q 2534 3019 2420 3045  Q 2306 3072 2169 3072  Q 1681 3072 1420 2755  Q 1159 2438 1159 1844  L 1159 0  L 581 0  L 581 3500  L 1159 3500  L 1159 2956  Q 1341 3275 1631 3429  Q 1922 3584 2338 3584  Q 2397 3584 2469 3576  Q 2541 3569 2628 3553  L 2631 2963  z "
       id="DejaVuSans-72-1"
       transform="scale(0.015625)" /><path
       d="M 947 1747  Q 947 1113 1208 752  Q 1469 391 1925 391  Q 2381 391 2643 752  Q 2906 1113 2906 1747  Q 2906 2381 2643 2742  Q 2381 3103 1925 3103  Q 1469 3103 1208 2742  Q 947 2381 947 1747  z M 2906 525  Q 2725 213 2448 61  Q 2172 -91 1784 -91  Q 1150 -91 751 415  Q 353 922 353 1747  Q 353 2572 751 3078  Q 1150 3584 1784 3584  Q 2172 3584 2448 3432  Q 2725 3281 2906 2969  L 2906 3500  L 3481 3500  L 3481 -1331  L 2906 -1331  L 2906 525  z "
       id="DejaVuSans-71-0"
       transform="scale(0.015625)" /><path
       d="M 544 1381  L 544 3500  L 1119 3500  L 1119 1403  Q 1119 906 1312 657  Q 1506 409 1894 409  Q 2359 409 2629 706  Q 2900 1003 2900 1516  L 2900 3500  L 3475 3500  L 3475 0  L 2900 0  L 2900 538  Q 2691 219 2414 64  Q 2138 -91 1772 -91  Q 1169 -91 856 284  Q 544 659 544 1381  z M 1991 3584  L 1991 3584  z "
       id="DejaVuSans-75-6"
       transform="scale(0.015625)" /><path
       d="M 3513 2113  L 3513 0  L 2938 0  L 2938 2094  Q 2938 2591 2744 2837  Q 2550 3084 2163 3084  Q 1697 3084 1428 2787  Q 1159 2491 1159 1978  L 1159 0  L 581 0  L 581 3500  L 1159 3500  L 1159 2956  Q 1366 3272 1645 3428  Q 1925 3584 2291 3584  Q 2894 3584 3203 3211  Q 3513 2838 3513 2113  z "
       id="DejaVuSans-6e-3"
       transform="scale(0.015625)" /><path
       d="M 3122 3366  L 3122 2828  Q 2878 2963 2633 3030  Q 2388 3097 2138 3097  Q 1578 3097 1268 2742  Q 959 2388 959 1747  Q 959 1106 1268 751  Q 1578 397 2138 397  Q 2388 397 2633 464  Q 2878 531 3122 666  L 3122 134  Q 2881 22 2623 -34  Q 2366 -91 2075 -91  Q 1284 -91 818 406  Q 353 903 353 1747  Q 353 2603 823 3093  Q 1294 3584 2113 3584  Q 2378 3584 2631 3529  Q 2884 3475 3122 3366  z "
       id="DejaVuSans-63-2"
       transform="scale(0.015625)" /><path
       d="M 2059 -325  Q 1816 -950 1584 -1140  Q 1353 -1331 966 -1331  L 506 -1331  L 506 -850  L 844 -850  Q 1081 -850 1212 -737  Q 1344 -625 1503 -206  L 1606 56  L 191 3500  L 800 3500  L 1894 763  L 2988 3500  L 3597 3500  L 2059 -325  z "
       id="DejaVuSans-79-0"
       transform="scale(0.015625)" /><clipPath
       id="p01f3430690"><rect
         height="105.4"
         width="229.525"
         x="47.675"
         y="10.8"
         id="rect1053" /></clipPath><style
       type="text/css"
       id="style1273">*{stroke-linecap:butt;stroke-linejoin:round;}</style><path
       d="M 0 0  L 0 3.5  "
       id="mda1a978f7c"
       style="stroke:#000000;stroke-width:0.8;" /><path
       d="M 2834 3397  L 2834 2853  Q 2591 2978 2328 3040  Q 2066 3103 1784 3103  Q 1356 3103 1142 2972  Q 928 2841 928 2578  Q 928 2378 1081 2264  Q 1234 2150 1697 2047  L 1894 2003  Q 2506 1872 2764 1633  Q 3022 1394 3022 966  Q 3022 478 2636 193  Q 2250 -91 1575 -91  Q 1294 -91 989 -36  Q 684 19 347 128  L 347 722  Q 666 556 975 473  Q 1284 391 1588 391  Q 1994 391 2212 530  Q 2431 669 2431 922  Q 2431 1156 2273 1281  Q 2116 1406 1581 1522  L 1381 1569  Q 847 1681 609 1914  Q 372 2147 372 2553  Q 372 3047 722 3315  Q 1072 3584 1716 3584  Q 2034 3584 2315 3537  Q 2597 3491 2834 3397  z "
       id="DejaVuSans-73-4"
       transform="scale(0.015625)" /><path
       d="M 1172 4494  L 1172 3500  L 2356 3500  L 2356 3053  L 1172 3053  L 1172 1153  Q 1172 725 1289 603  Q 1406 481 1766 481  L 2356 481  L 2356 0  L 1766 0  Q 1100 0 847 248  Q 594 497 594 1153  L 594 3053  L 172 3053  L 172 3500  L 594 3500  L 594 4494  L 1172 4494  z "
       id="DejaVuSans-74-4"
       transform="scale(0.015625)" /><path
       d="M 2194 1759  Q 1497 1759 1228 1600  Q 959 1441 959 1056  Q 959 750 1161 570  Q 1363 391 1709 391  Q 2188 391 2477 730  Q 2766 1069 2766 1631  L 2766 1759  L 2194 1759  z M 3341 1997  L 3341 0  L 2766 0  L 2766 531  Q 2569 213 2275 61  Q 1981 -91 1556 -91  Q 1019 -91 701 211  Q 384 513 384 1019  Q 384 1609 779 1909  Q 1175 2209 1959 2209  L 2766 2209  L 2766 2266  Q 2766 2663 2505 2880  Q 2244 3097 1772 3097  Q 1472 3097 1187 3025  Q 903 2953 641 2809  L 641 3341  Q 956 3463 1253 3523  Q 1550 3584 1831 3584  Q 2591 3584 2966 3190  Q 3341 2797 3341 1997  z "
       id="DejaVuSans-61-3"
       transform="scale(0.015625)" /><path
       d="M 3597 1894  L 3597 1613  L 953 1613  Q 991 1019 1311 708  Q 1631 397 2203 397  Q 2534 397 2845 478  Q 3156 559 3463 722  L 3463 178  Q 3153 47 2828 -22  Q 2503 -91 2169 -91  Q 1331 -91 842 396  Q 353 884 353 1716  Q 353 2575 817 3079  Q 1281 3584 2069 3584  Q 2775 3584 3186 3129  Q 3597 2675 3597 1894  z M 3022 2063  Q 3016 2534 2758 2815  Q 2500 3097 2075 3097  Q 1594 3097 1305 2825  Q 1016 2553 972 2059  L 3022 2063  z "
       id="DejaVuSans-65-07"
       transform="scale(0.015625)" /><path
       d="M 794 531  L 1825 531  L 1825 4091  L 703 3866  L 703 4441  L 1819 4666  L 2450 4666  L 2450 531  L 3481 531  L 3481 0  L 794 0  L 794 531  z "
       id="DejaVuSans-31-8"
       transform="scale(0.015625)" /><path
       d="M 1228 531  L 3431 531  L 3431 0  L 469 0  L 469 531  Q 828 903 1448 1529  Q 2069 2156 2228 2338  Q 2531 2678 2651 2914  Q 2772 3150 2772 3378  Q 2772 3750 2511 3984  Q 2250 4219 1831 4219  Q 1534 4219 1204 4116  Q 875 4013 500 3803  L 500 4441  Q 881 4594 1212 4672  Q 1544 4750 1819 4750  Q 2544 4750 2975 4387  Q 3406 4025 3406 3419  Q 3406 3131 3298 2873  Q 3191 2616 2906 2266  Q 2828 2175 2409 1742  Q 1991 1309 1228 531  z "
       id="DejaVuSans-32-4"
       transform="scale(0.015625)" /><path
       d="M 2597 2516  Q 3050 2419 3304 2112  Q 3559 1806 3559 1356  Q 3559 666 3084 287  Q 2609 -91 1734 -91  Q 1441 -91 1130 -33  Q 819 25 488 141  L 488 750  Q 750 597 1062 519  Q 1375 441 1716 441  Q 2309 441 2620 675  Q 2931 909 2931 1356  Q 2931 1769 2642 2001  Q 2353 2234 1838 2234  L 1294 2234  L 1294 2753  L 1863 2753  Q 2328 2753 2575 2939  Q 2822 3125 2822 3475  Q 2822 3834 2567 4026  Q 2313 4219 1838 4219  Q 1578 4219 1281 4162  Q 984 4106 628 3988  L 628 4550  Q 988 4650 1302 4700  Q 1616 4750 1894 4750  Q 2613 4750 3031 4423  Q 3450 4097 3450 3541  Q 3450 3153 3228 2886  Q 3006 2619 2597 2516  z "
       id="DejaVuSans-33-9"
       transform="scale(0.015625)" /><path
       d="M 2419 4116  L 825 1625  L 2419 1625  L 2419 4116  z M 2253 4666  L 3047 4666  L 3047 1625  L 3713 1625  L 3713 1100  L 3047 1100  L 3047 0  L 2419 0  L 2419 1100  L 313 1100  L 313 1709  L 2253 4666  z "
       id="DejaVuSans-34-9"
       transform="scale(0.015625)" /><path
       d="M 691 4666  L 3169 4666  L 3169 4134  L 1269 4134  L 1269 2991  Q 1406 3038 1543 3061  Q 1681 3084 1819 3084  Q 2600 3084 3056 2656  Q 3513 2228 3513 1497  Q 3513 744 3044 326  Q 2575 -91 1722 -91  Q 1428 -91 1123 -41  Q 819 9 494 109  L 494 744  Q 775 591 1075 516  Q 1375 441 1709 441  Q 2250 441 2565 725  Q 2881 1009 2881 1497  Q 2881 1984 2565 2268  Q 2250 2553 1709 2553  Q 1456 2553 1204 2497  Q 953 2441 691 2322  L 691 4666  z "
       id="DejaVuSans-35-4"
       transform="scale(0.015625)" /><path
       d="M 0 0  L -3.5 0  "
       id="m08d42164cf"
       style="stroke:#000000;stroke-width:0.8;" /><path
       d="M 2034 4250  Q 1547 4250 1301 3770  Q 1056 3291 1056 2328  Q 1056 1369 1301 889  Q 1547 409 2034 409  Q 2525 409 2770 889  Q 3016 1369 3016 2328  Q 3016 3291 2770 3770  Q 2525 4250 2034 4250  z M 2034 4750  Q 2819 4750 3233 4129  Q 3647 3509 3647 2328  Q 3647 1150 3233 529  Q 2819 -91 2034 -91  Q 1250 -91 836 529  Q 422 1150 422 2328  Q 422 3509 836 4129  Q 1250 4750 2034 4750  z "
       id="DejaVuSans-30-7"
       transform="scale(0.015625)" /><path
       d="M 684 794  L 1344 794  L 1344 0  L 684 0  L 684 794  z "
       id="DejaVuSans-2e-1"
       transform="scale(0.015625)" /><path
       d="M 2113 2584  Q 1688 2584 1439 2293  Q 1191 2003 1191 1497  Q 1191 994 1439 701  Q 1688 409 2113 409  Q 2538 409 2786 701  Q 3034 994 3034 1497  Q 3034 2003 2786 2293  Q 2538 2584 2113 2584  z M 3366 4563  L 3366 3988  Q 3128 4100 2886 4159  Q 2644 4219 2406 4219  Q 1781 4219 1451 3797  Q 1122 3375 1075 2522  Q 1259 2794 1537 2939  Q 1816 3084 2150 3084  Q 2853 3084 3261 2657  Q 3669 2231 3669 1497  Q 3669 778 3244 343  Q 2819 -91 2113 -91  Q 1303 -91 875 529  Q 447 1150 447 2328  Q 447 3434 972 4092  Q 1497 4750 2381 4750  Q 2619 4750 2861 4703  Q 3103 4656 3366 4563  z "
       id="DejaVuSans-36-1"
       transform="scale(0.015625)" /><path
       d="M 628 4666  L 3309 4666  L 3309 4134  L 1259 4134  L 1259 2759  L 3109 2759  L 3109 2228  L 1259 2228  L 1259 0  L 628 0  L 628 4666  z "
       id="DejaVuSans-46-9"
       transform="scale(0.015625)" /><path
       d="M 2631 2963  Q 2534 3019 2420 3045  Q 2306 3072 2169 3072  Q 1681 3072 1420 2755  Q 1159 2438 1159 1844  L 1159 0  L 581 0  L 581 3500  L 1159 3500  L 1159 2956  Q 1341 3275 1631 3429  Q 1922 3584 2338 3584  Q 2397 3584 2469 3576  Q 2541 3569 2628 3553  L 2631 2963  z "
       id="DejaVuSans-72-4"
       transform="scale(0.015625)" /><path
       d="M 947 1747  Q 947 1113 1208 752  Q 1469 391 1925 391  Q 2381 391 2643 752  Q 2906 1113 2906 1747  Q 2906 2381 2643 2742  Q 2381 3103 1925 3103  Q 1469 3103 1208 2742  Q 947 2381 947 1747  z M 2906 525  Q 2725 213 2448 61  Q 2172 -91 1784 -91  Q 1150 -91 751 415  Q 353 922 353 1747  Q 353 2572 751 3078  Q 1150 3584 1784 3584  Q 2172 3584 2448 3432  Q 2725 3281 2906 2969  L 2906 3500  L 3481 3500  L 3481 -1331  L 2906 -1331  L 2906 525  z "
       id="DejaVuSans-71-9"
       transform="scale(0.015625)" /><path
       d="M 544 1381  L 544 3500  L 1119 3500  L 1119 1403  Q 1119 906 1312 657  Q 1506 409 1894 409  Q 2359 409 2629 706  Q 2900 1003 2900 1516  L 2900 3500  L 3475 3500  L 3475 0  L 2900 0  L 2900 538  Q 2691 219 2414 64  Q 2138 -91 1772 -91  Q 1169 -91 856 284  Q 544 659 544 1381  z M 1991 3584  L 1991 3584  z "
       id="DejaVuSans-75-0"
       transform="scale(0.015625)" /><path
       d="M 3513 2113  L 3513 0  L 2938 0  L 2938 2094  Q 2938 2591 2744 2837  Q 2550 3084 2163 3084  Q 1697 3084 1428 2787  Q 1159 2491 1159 1978  L 1159 0  L 581 0  L 581 3500  L 1159 3500  L 1159 2956  Q 1366 3272 1645 3428  Q 1925 3584 2291 3584  Q 2894 3584 3203 3211  Q 3513 2838 3513 2113  z "
       id="DejaVuSans-6e-9"
       transform="scale(0.015625)" /><path
       d="M 3122 3366  L 3122 2828  Q 2878 2963 2633 3030  Q 2388 3097 2138 3097  Q 1578 3097 1268 2742  Q 959 2388 959 1747  Q 959 1106 1268 751  Q 1578 397 2138 397  Q 2388 397 2633 464  Q 2878 531 3122 666  L 3122 134  Q 2881 22 2623 -34  Q 2366 -91 2075 -91  Q 1284 -91 818 406  Q 353 903 353 1747  Q 353 2603 823 3093  Q 1294 3584 2113 3584  Q 2378 3584 2631 3529  Q 2884 3475 3122 3366  z "
       id="DejaVuSans-63-1"
       transform="scale(0.015625)" /><path
       d="M 2059 -325  Q 1816 -950 1584 -1140  Q 1353 -1331 966 -1331  L 506 -1331  L 506 -850  L 844 -850  Q 1081 -850 1212 -737  Q 1344 -625 1503 -206  L 1606 56  L 191 3500  L 800 3500  L 1894 763  L 2988 3500  L 3597 3500  L 2059 -325  z "
       id="DejaVuSans-79-7"
       transform="scale(0.015625)" /><clipPath
       id="p57b82982bc"><rect
         height="105.4"
         width="229.525"
         x="47.675"
         y="10.8"
         id="rect1541" /></clipPath><rect
       x="-331.57825"
       y="96.253845"
       width="225.29083"
       height="179.92657"
       id="rect2385-3" /><rect
       x="-331.57825"
       y="96.253845"
       width="225.29083"
       height="179.92657"
       id="rect2385-7" /></defs><g
     inkscape:label="Layer 1"
     inkscape:groupmode="layer"
     id="layer1"><g
       id="figure_1"
       transform="matrix(0.35277778,0,0,0.35277778,0.06348115,0.06716219)"><g
         id="patch_1"><path
           d="M 0,144 H 288 V 0 H 0 Z"
           style="fill:none"
           id="path193" /></g><g
         id="axes_1"><g
           id="patch_2"><path
             d="M 47.675,116.2 H 277.2 V 10.8 H 47.675 Z"
             style="fill:#ffffff"
             id="path196" /></g><g
           id="patch_3"><path
             clip-path="url(#pf272da422b)"
             d="M 58.107955,116.2 H 92.88447 V 79.213256 H 58.107955 Z"
             style="fill:#1f77b4"
             id="path199" /></g><g
           id="patch_4"><path
             clip-path="url(#pf272da422b)"
             d="m 101.5786,116.2 h 34.77651 V 96.729005 H 101.5786 Z"
             style="fill:#1f77b4"
             id="path202" /></g><g
           id="patch_5"><path
             clip-path="url(#pf272da422b)"
             d="m 145.04924,116.2 h 34.77652 v -1.14056 h -34.77652 z"
             style="fill:#1f77b4"
             id="path205" /></g><g
           id="patch_6"><path
             clip-path="url(#pf272da422b)"
             d="m 188.51989,116.2 h 34.77651 v -1.9196 h -34.77651 z"
             style="fill:#1f77b4"
             id="path208" /></g><g
           id="patch_7"><path
             clip-path="url(#pf272da422b)"
             d="m 231.99053,116.2 h 34.77651 V 14.995633 h -34.77651 z"
             style="fill:#1f77b4"
             id="path211" /></g><g
           id="matplotlib.axis_1"><g
             id="xtick_1"><g
               id="line2d_1"><defs
                 id="defs215"><path
                   d="M 0,0 V 3.5"
                   id="path504"
                   style="stroke:#000000;stroke-width:0.8" /></defs><g
                 id="g219"><use
                   style="stroke:#000000;stroke-width:0.8"
                   x="75.496208"
                   xlink:href="#mca52abd09a"
                   y="116.2"
                   id="use217" /></g></g><g
               id="text_1"><!-- state1 --><g
                 transform="matrix(0.1,0,0,-0.1,59.649337,130.79844)"
                 id="g241"><defs
                   id="defs227"><path
                     d="m 2834,3397 v -544 q -243,125 -506,187 -262,63 -544,63 -428,0 -642,-131 -214,-131 -214,-394 0,-200 153,-314 153,-114 616,-217 l 197,-44 q 612,-131 870,-370 258,-239 258,-667 0,-488 -386,-773 Q 2250,-91 1575,-91 1294,-91 989,-36 684,19 347,128 v 594 q 319,-166 628,-249 309,-82 613,-82 406,0 624,139 219,139 219,392 0,234 -158,359 -157,125 -692,241 l -200,47 q -534,112 -772,345 -237,233 -237,639 0,494 350,762 350,269 994,269 318,0 599,-47 282,-46 519,-140 z"
                     id="path510"
                     transform="scale(0.015625)" /><path
                     d="M 1172,4494 V 3500 H 2356 V 3053 H 1172 V 1153 q 0,-428 117,-550 117,-122 477,-122 h 590 V 0 H 1766 Q 1100,0 847,248 594,497 594,1153 V 3053 H 172 v 447 h 422 v 994 z"
                     id="path512"
                     transform="scale(0.015625)" /><path
                     d="m 2194,1759 q -697,0 -966,-159 -269,-159 -269,-544 0,-306 202,-486 202,-179 548,-179 479,0 768,339 289,339 289,901 v 128 z m 1147,238 V 0 H 2766 V 531 Q 2569,213 2275,61 1981,-91 1556,-91 q -537,0 -855,302 -317,302 -317,808 0,590 395,890 396,300 1180,300 h 807 v 57 q 0,397 -261,614 -261,217 -733,217 -300,0 -585,-72 -284,-72 -546,-216 v 532 q 315,122 612,182 297,61 578,61 760,0 1135,-394 375,-393 375,-1193 z"
                     id="path514"
                     transform="scale(0.015625)" /><path
                     d="M 3597,1894 V 1613 H 953 q 38,-594 358,-905 320,-311 892,-311 331,0 642,81 311,81 618,244 V 178 Q 3153,47 2828,-22 2503,-91 2169,-91 1331,-91 842,396 353,884 353,1716 q 0,859 464,1363 464,505 1252,505 706,0 1117,-455 411,-454 411,-1235 z m -575,169 q -6,471 -264,752 -258,282 -683,282 -481,0 -770,-272 -289,-272 -333,-766 z"
                     id="path516"
                     transform="scale(0.015625)" /><path
                     d="M 794,531 H 1825 V 4091 L 703,3866 v 575 l 1116,225 h 631 V 531 H 3481 V 0 H 794 Z"
                     id="path518"
                     transform="scale(0.015625)" /></defs><use
                   xlink:href="#DejaVuSans-73"
                   id="use229" /><use
                   x="52.099609"
                   xlink:href="#DejaVuSans-74"
                   id="use231" /><use
                   x="91.308594"
                   xlink:href="#DejaVuSans-61"
                   id="use233" /><use
                   x="152.58789"
                   xlink:href="#DejaVuSans-74"
                   id="use235" /><use
                   x="191.79688"
                   xlink:href="#DejaVuSans-65"
                   id="use237" /><use
                   x="253.32031"
                   xlink:href="#DejaVuSans-31"
                   id="use239" /></g></g></g><g
             id="xtick_2"><g
               id="line2d_2"><g
                 id="g247"><use
                   style="stroke:#000000;stroke-width:0.8"
                   x="118.96686"
                   xlink:href="#mca52abd09a"
                   y="116.2"
                   id="use245" /></g></g><g
               id="text_2"><!-- state2 --><g
                 transform="matrix(0.1,0,0,-0.1,103.11998,130.79844)"
                 id="g265"><defs
                   id="defs251"><path
                     d="M 1228,531 H 3431 V 0 H 469 v 531 q 359,372 979,998 621,627 780,809 303,340 423,576 121,236 121,464 0,372 -261,606 -261,235 -680,235 -297,0 -627,-103 -329,-103 -704,-313 v 638 q 381,153 712,231 332,78 607,78 725,0 1156,-363 431,-362 431,-968 0,-288 -108,-546 -107,-257 -392,-607 -78,-91 -497,-524 Q 1991,1309 1228,531 Z"
                     id="path533"
                     transform="scale(0.015625)" /></defs><use
                   xlink:href="#DejaVuSans-73"
                   id="use253" /><use
                   x="52.099609"
                   xlink:href="#DejaVuSans-74"
                   id="use255" /><use
                   x="91.308594"
                   xlink:href="#DejaVuSans-61"
                   id="use257" /><use
                   x="152.58789"
                   xlink:href="#DejaVuSans-74"
                   id="use259" /><use
                   x="191.79688"
                   xlink:href="#DejaVuSans-65"
                   id="use261" /><use
                   x="253.32031"
                   xlink:href="#DejaVuSans-32"
                   id="use263" /></g></g></g><g
             id="xtick_3"><g
               id="line2d_3"><g
                 id="g271"><use
                   style="stroke:#000000;stroke-width:0.8"
                   x="162.4375"
                   xlink:href="#mca52abd09a"
                   y="116.2"
                   id="use269" /></g></g><g
               id="text_3"><!-- state3 --><g
                 transform="matrix(0.1,0,0,-0.1,146.59062,130.79844)"
                 id="g289"><defs
                   id="defs275"><path
                     d="m 2597,2516 q 453,-97 707,-404 255,-306 255,-756 0,-690 -475,-1069 -475,-378 -1350,-378 -293,0 -604,58 -311,58 -642,174 v 609 q 262,-153 574,-231 313,-78 654,-78 593,0 904,234 311,234 311,681 0,413 -289,645 -289,233 -804,233 h -544 v 519 h 569 q 465,0 712,186 247,186 247,536 0,359 -255,551 -254,193 -729,193 -260,0 -557,-57 -297,-56 -653,-174 v 562 q 360,100 674,150 314,50 592,50 719,0 1137,-327 419,-326 419,-882 0,-388 -222,-655 -222,-267 -631,-370 z"
                     id="path548"
                     transform="scale(0.015625)" /></defs><use
                   xlink:href="#DejaVuSans-73"
                   id="use277" /><use
                   x="52.099609"
                   xlink:href="#DejaVuSans-74"
                   id="use279" /><use
                   x="91.308594"
                   xlink:href="#DejaVuSans-61"
                   id="use281" /><use
                   x="152.58789"
                   xlink:href="#DejaVuSans-74"
                   id="use283" /><use
                   x="191.79688"
                   xlink:href="#DejaVuSans-65"
                   id="use285" /><use
                   x="253.32031"
                   xlink:href="#DejaVuSans-33"
                   id="use287" /></g></g></g><g
             id="xtick_4"><g
               id="line2d_4"><g
                 id="g295"><use
                   style="stroke:#000000;stroke-width:0.8"
                   x="205.90814"
                   xlink:href="#mca52abd09a"
                   y="116.2"
                   id="use293" /></g></g><g
               id="text_4"><!-- state4 --><g
                 transform="matrix(0.1,0,0,-0.1,190.06127,130.79844)"
                 id="g313"><defs
                   id="defs299"><path
                     d="M 2419,4116 825,1625 h 1594 z m -166,550 h 794 V 1625 h 666 V 1100 H 3047 V 0 H 2419 V 1100 H 313 v 609 z"
                     id="path563"
                     transform="scale(0.015625)" /></defs><use
                   xlink:href="#DejaVuSans-73"
                   id="use301" /><use
                   x="52.099609"
                   xlink:href="#DejaVuSans-74"
                   id="use303" /><use
                   x="91.308594"
                   xlink:href="#DejaVuSans-61"
                   id="use305" /><use
                   x="152.58789"
                   xlink:href="#DejaVuSans-74"
                   id="use307" /><use
                   x="191.79688"
                   xlink:href="#DejaVuSans-65"
                   id="use309" /><use
                   x="253.32031"
                   xlink:href="#DejaVuSans-34"
                   id="use311" /></g></g></g><g
             id="xtick_5"><g
               id="line2d_5"><g
                 id="g319"><use
                   style="stroke:#000000;stroke-width:0.8"
                   x="249.37878"
                   xlink:href="#mca52abd09a"
                   y="116.2"
                   id="use317" /></g></g><g
               id="text_5"><!-- state5 --><g
                 transform="matrix(0.1,0,0,-0.1,233.53191,130.79844)"
                 id="g337"><defs
                   id="defs323"><path
                     d="M 691,4666 H 3169 V 4134 H 1269 V 2991 q 137,47 274,70 138,23 276,23 781,0 1237,-428 457,-428 457,-1159 Q 3513,744 3044,326 2575,-91 1722,-91 1428,-91 1123,-41 819,9 494,109 v 635 q 281,-153 581,-228 300,-75 634,-75 541,0 856,284 316,284 316,772 0,487 -316,771 -315,285 -856,285 -253,0 -505,-56 -251,-56 -513,-175 z"
                     id="path578"
                     transform="scale(0.015625)" /></defs><use
                   xlink:href="#DejaVuSans-73"
                   id="use325" /><use
                   x="52.099609"
                   xlink:href="#DejaVuSans-74"
                   id="use327" /><use
                   x="91.308594"
                   xlink:href="#DejaVuSans-61"
                   id="use329" /><use
                   x="152.58789"
                   xlink:href="#DejaVuSans-74"
                   id="use331" /><use
                   x="191.79688"
                   xlink:href="#DejaVuSans-65"
                   id="use333" /><use
                   x="253.32031"
                   xlink:href="#DejaVuSans-35"
                   id="use335" /></g></g></g></g><g
           id="matplotlib.axis_2"><g
             id="ytick_1"><g
               id="line2d_6"><defs
                 id="defs343"><path
                   d="M 0,0 H -3.5"
                   id="path591"
                   style="stroke:#000000;stroke-width:0.8" /></defs><g
                 id="g347"><use
                   style="stroke:#000000;stroke-width:0.8"
                   x="47.674999"
                   xlink:href="#m56b71991db"
                   y="116.2"
                   id="use345" /></g></g><g
               id="text_6"><!-- 0.0 --><g
                 transform="matrix(0.1,0,0,-0.1,24.771875,119.99922)"
                 id="g360"><defs
                   id="defs352"><path
                     d="m 2034,4250 q -487,0 -733,-480 -245,-479 -245,-1442 0,-959 245,-1439 246,-480 733,-480 491,0 736,480 246,480 246,1439 0,963 -246,1442 -245,480 -736,480 z m 0,500 q 785,0 1199,-621 414,-620 414,-1801 0,-1178 -414,-1799 -414,-620 -1199,-620 -784,0 -1198,620 -414,621 -414,1799 0,1181 414,1801 414,621 1198,621 z"
                     id="path597"
                     transform="scale(0.015625)" /><path
                     d="m 684,794 h 660 V 0 H 684 Z"
                     id="path599"
                     transform="scale(0.015625)" /></defs><use
                   xlink:href="#DejaVuSans-30"
                   id="use354" /><use
                   x="63.623047"
                   xlink:href="#DejaVuSans-2e"
                   id="use356" /><use
                   x="95.410156"
                   xlink:href="#DejaVuSans-30"
                   id="use358" /></g></g></g><g
             id="ytick_2"><g
               id="line2d_7"><g
                 id="g366"><use
                   style="stroke:#000000;stroke-width:0.8"
                   x="47.674999"
                   xlink:href="#m56b71991db"
                   y="85.649277"
                   id="use364" /></g></g><g
               id="text_7"><!-- 0.2 --><g
                 transform="matrix(0.1,0,0,-0.1,24.771875,89.448494)"
                 id="g375"><use
                   xlink:href="#DejaVuSans-30"
                   id="use369" /><use
                   x="63.623047"
                   xlink:href="#DejaVuSans-2e"
                   id="use371" /><use
                   x="95.410156"
                   xlink:href="#DejaVuSans-32"
                   id="use373" /></g></g></g><g
             id="ytick_3"><g
               id="line2d_8"><g
                 id="g381"><use
                   style="stroke:#000000;stroke-width:0.8"
                   x="47.674999"
                   xlink:href="#m56b71991db"
                   y="55.098553"
                   id="use379" /></g></g><g
               id="text_8"><!-- 0.4 --><g
                 transform="matrix(0.1,0,0,-0.1,24.771875,58.897769)"
                 id="g390"><use
                   xlink:href="#DejaVuSans-30"
                   id="use384" /><use
                   x="63.623047"
                   xlink:href="#DejaVuSans-2e"
                   id="use386" /><use
                   x="95.410156"
                   xlink:href="#DejaVuSans-34"
                   id="use388" /></g></g></g><g
             id="ytick_4"><g
               id="line2d_9"><g
                 id="g396"><use
                   style="stroke:#000000;stroke-width:0.8"
                   x="47.674999"
                   xlink:href="#m56b71991db"
                   y="24.547827"
                   id="use394" /></g></g><g
               id="text_9"><!-- 0.6 --><g
                 transform="matrix(0.1,0,0,-0.1,24.771875,28.347045)"
                 id="g408"><defs
                   id="defs400"><path
                     d="m 2113,2584 q -425,0 -674,-291 -248,-290 -248,-796 0,-503 248,-796 249,-292 674,-292 425,0 673,292 248,293 248,796 0,506 -248,796 -248,291 -673,291 z m 1253,1979 v -575 q -238,112 -480,171 -242,60 -480,60 -625,0 -955,-422 -329,-422 -376,-1275 184,272 462,417 279,145 613,145 703,0 1111,-427 408,-426 408,-1160 0,-719 -425,-1154 -425,-434 -1131,-434 -810,0 -1238,620 -428,621 -428,1799 0,1106 525,1764 525,658 1409,658 238,0 480,-47 242,-47 505,-140 z"
                     id="path629"
                     transform="scale(0.015625)" /></defs><use
                   xlink:href="#DejaVuSans-30"
                   id="use402" /><use
                   x="63.623047"
                   xlink:href="#DejaVuSans-2e"
                   id="use404" /><use
                   x="95.410156"
                   xlink:href="#DejaVuSans-36"
                   id="use406" /></g></g></g><g
             id="text_10"><!-- Frequency --><g
               transform="matrix(0,-0.1,-0.1,0,18.692187,89.329688)"
               id="g439"><defs
                 id="defs419"><path
                   d="M 628,4666 H 3309 V 4134 H 1259 V 2759 H 3109 V 2228 H 1259 V 0 H 628 Z"
                   id="path638"
                   transform="scale(0.015625)" /><path
                   d="m 2631,2963 q -97,56 -211,82 -114,27 -251,27 -488,0 -749,-317 -261,-317 -261,-911 V 0 H 581 v 3500 h 578 v -544 q 182,319 472,473 291,155 707,155 59,0 131,-8 72,-7 159,-23 z"
                   id="path640"
                   transform="scale(0.015625)" /><path
                   d="m 947,1747 q 0,-634 261,-995 261,-361 717,-361 456,0 718,361 263,361 263,995 0,634 -263,995 -262,361 -718,361 -456,0 -717,-361 Q 947,2381 947,1747 Z M 2906,525 Q 2725,213 2448,61 2172,-91 1784,-91 1150,-91 751,415 353,922 353,1747 q 0,825 398,1331 399,506 1033,506 388,0 664,-152 277,-151 458,-463 v 531 h 575 v -4831 h -575 z"
                   id="path642"
                   transform="scale(0.015625)" /><path
                   d="m 544,1381 v 2119 h 575 V 1403 q 0,-497 193,-746 194,-248 582,-248 465,0 735,297 271,297 271,810 v 1984 h 575 V 0 H 2900 V 538 Q 2691,219 2414,64 2138,-91 1772,-91 1169,-91 856,284 544,659 544,1381 Z m 1447,2203 z"
                   id="path644"
                   transform="scale(0.015625)" /><path
                   d="M 3513,2113 V 0 h -575 v 2094 q 0,497 -194,743 -194,247 -581,247 -466,0 -735,-297 -269,-296 -269,-809 V 0 H 581 v 3500 h 578 v -544 q 207,316 486,472 280,156 646,156 603,0 912,-373 310,-373 310,-1098 z"
                   id="path646"
                   transform="scale(0.015625)" /><path
                   d="m 3122,3366 v -538 q -244,135 -489,202 -245,67 -495,67 -560,0 -870,-355 -309,-354 -309,-995 0,-641 309,-996 310,-354 870,-354 250,0 495,67 245,67 489,202 V 134 Q 2881,22 2623,-34 2366,-91 2075,-91 1284,-91 818,406 353,903 353,1747 q 0,856 470,1346 471,491 1290,491 265,0 518,-55 253,-54 491,-163 z"
                   id="path648"
                   transform="scale(0.015625)" /><path
                   d="m 2059,-325 q -243,-625 -475,-815 -231,-191 -618,-191 H 506 v 481 h 338 q 237,0 368,113 132,112 291,531 L 1606,56 191,3500 H 800 L 1894,763 2988,3500 h 609 z"
                   id="path650"
                   transform="scale(0.015625)" /></defs><use
                 xlink:href="#DejaVuSans-46"
                 id="use421" /><use
                 x="50.269531"
                 xlink:href="#DejaVuSans-72"
                 id="use423" /><use
                 x="89.132812"
                 xlink:href="#DejaVuSans-65"
                 id="use425" /><use
                 x="150.65625"
                 xlink:href="#DejaVuSans-71"
                 id="use427" /><use
                 x="214.13281"
                 xlink:href="#DejaVuSans-75"
                 id="use429" /><use
                 x="277.51172"
                 xlink:href="#DejaVuSans-65"
                 id="use431" /><use
                 x="339.03516"
                 xlink:href="#DejaVuSans-6e"
                 id="use433" /><use
                 x="402.41406"
                 xlink:href="#DejaVuSans-63"
                 id="use435" /><use
                 x="457.39453"
                 xlink:href="#DejaVuSans-79"
                 id="use437" /></g></g></g><g
           id="patch_8"><path
             d="M 47.675,116.2 V 10.8"
             style="fill:none;stroke:#000000;stroke-width:0.8;stroke-linecap:square;stroke-linejoin:miter"
             id="path443" /></g><g
           id="patch_9"><path
             d="M 277.2,116.2 V 10.8"
             style="fill:none;stroke:#000000;stroke-width:0.8;stroke-linecap:square;stroke-linejoin:miter"
             id="path446" /></g><g
           id="patch_10"><path
             d="M 47.675,116.2 H 277.2"
             style="fill:none;stroke:#000000;stroke-width:0.8;stroke-linecap:square;stroke-linejoin:miter"
             id="path449" /></g><g
           id="patch_11"><path
             d="M 47.675,10.8 H 277.2"
             style="fill:none;stroke:#000000;stroke-width:0.8;stroke-linecap:square;stroke-linejoin:miter"
             id="path452" /></g></g></g><g
       id="figure_1-3"
       transform="matrix(0.35277778,0,0,0.35277778,0.11662411,50.671345)"><g
         id="patch_1-6"><path
           d="M 0,144 H 288 V 0 H 0 Z"
           style="fill:none"
           id="path789" /></g><g
         id="axes_1-7"><g
           id="patch_2-5"><path
             d="M 47.675,116.2 H 277.2 V 10.8 H 47.675 Z"
             style="fill:#ffffff"
             id="path792" /></g><g
           id="patch_3-3"><path
             clip-path="url(#p01f3430690)"
             d="M 58.107955,116.2 H 92.88447 V 97.620068 H 58.107955 Z"
             style="fill:#1f77b4"
             id="path795" /></g><g
           id="patch_4-5"><path
             clip-path="url(#p01f3430690)"
             d="m 101.5786,116.2 h 34.77651 V 80.129778 H 101.5786 Z"
             style="fill:#1f77b4"
             id="path798" /></g><g
           id="patch_5-6"><path
             clip-path="url(#p01f3430690)"
             d="m 145.04924,116.2 h 34.77652 v -1.14056 h -34.77652 z"
             style="fill:#1f77b4"
             id="path801" /></g><g
           id="patch_6-2"><path
             clip-path="url(#p01f3430690)"
             d="M 188.51989,116.2 H 223.2964 V 23.402174 h -34.77651 z"
             style="fill:#1f77b4"
             id="path804" /></g><g
           id="patch_7-9"><path
             clip-path="url(#p01f3430690)"
             d="m 231.99053,116.2 h 34.77651 v -3.50315 h -34.77651 z"
             style="fill:#1f77b4"
             id="path807" /></g><g
           id="matplotlib.axis_1-1"><g
             id="xtick_1-2"><g
               id="line2d_1-7"><defs
                 id="defs811"><path
                   d="M 0,0 V 3.5"
                   id="path1100"
                   style="stroke:#000000;stroke-width:0.8" /></defs><g
                 id="g815"><use
                   style="stroke:#000000;stroke-width:0.8"
                   x="75.496208"
                   xlink:href="#m275af7c0e0"
                   y="116.2"
                   id="use813" /></g></g><g
               id="text_1-0"><!-- state1 --><g
                 transform="matrix(0.1,0,0,-0.1,59.649337,130.79844)"
                 id="g837"><defs
                   id="defs823"><path
                     d="m 2834,3397 v -544 q -243,125 -506,187 -262,63 -544,63 -428,0 -642,-131 -214,-131 -214,-394 0,-200 153,-314 153,-114 616,-217 l 197,-44 q 612,-131 870,-370 258,-239 258,-667 0,-488 -386,-773 Q 2250,-91 1575,-91 1294,-91 989,-36 684,19 347,128 v 594 q 319,-166 628,-249 309,-82 613,-82 406,0 624,139 219,139 219,392 0,234 -158,359 -157,125 -692,241 l -200,47 q -534,112 -772,345 -237,233 -237,639 0,494 350,762 350,269 994,269 318,0 599,-47 282,-46 519,-140 z"
                     id="path1106"
                     transform="scale(0.015625)" /><path
                     d="M 1172,4494 V 3500 H 2356 V 3053 H 1172 V 1153 q 0,-428 117,-550 117,-122 477,-122 h 590 V 0 H 1766 Q 1100,0 847,248 594,497 594,1153 V 3053 H 172 v 447 h 422 v 994 z"
                     id="path1108"
                     transform="scale(0.015625)" /><path
                     d="m 2194,1759 q -697,0 -966,-159 -269,-159 -269,-544 0,-306 202,-486 202,-179 548,-179 479,0 768,339 289,339 289,901 v 128 z m 1147,238 V 0 H 2766 V 531 Q 2569,213 2275,61 1981,-91 1556,-91 q -537,0 -855,302 -317,302 -317,808 0,590 395,890 396,300 1180,300 h 807 v 57 q 0,397 -261,614 -261,217 -733,217 -300,0 -585,-72 -284,-72 -546,-216 v 532 q 315,122 612,182 297,61 578,61 760,0 1135,-394 375,-393 375,-1193 z"
                     id="path1110"
                     transform="scale(0.015625)" /><path
                     d="M 3597,1894 V 1613 H 953 q 38,-594 358,-905 320,-311 892,-311 331,0 642,81 311,81 618,244 V 178 Q 3153,47 2828,-22 2503,-91 2169,-91 1331,-91 842,396 353,884 353,1716 q 0,859 464,1363 464,505 1252,505 706,0 1117,-455 411,-454 411,-1235 z m -575,169 q -6,471 -264,752 -258,282 -683,282 -481,0 -770,-272 -289,-272 -333,-766 z"
                     id="path1112"
                     transform="scale(0.015625)" /><path
                     d="M 794,531 H 1825 V 4091 L 703,3866 v 575 l 1116,225 h 631 V 531 H 3481 V 0 H 794 Z"
                     id="path1114"
                     transform="scale(0.015625)" /></defs><use
                   xlink:href="#DejaVuSans-73-9"
                   id="use825" /><use
                   x="52.099609"
                   xlink:href="#DejaVuSans-74-3"
                   id="use827" /><use
                   x="91.308594"
                   xlink:href="#DejaVuSans-61-6"
                   id="use829" /><use
                   x="152.58789"
                   xlink:href="#DejaVuSans-74-3"
                   id="use831" /><use
                   x="191.79688"
                   xlink:href="#DejaVuSans-65-0"
                   id="use833" /><use
                   x="253.32031"
                   xlink:href="#DejaVuSans-31-6"
                   id="use835" /></g></g></g><g
             id="xtick_2-2"><g
               id="line2d_2-6"><g
                 id="g843"><use
                   style="stroke:#000000;stroke-width:0.8"
                   x="118.96686"
                   xlink:href="#m275af7c0e0"
                   y="116.2"
                   id="use841" /></g></g><g
               id="text_2-1"><!-- state2 --><g
                 transform="matrix(0.1,0,0,-0.1,103.11998,130.79844)"
                 id="g861"><defs
                   id="defs847"><path
                     d="M 1228,531 H 3431 V 0 H 469 v 531 q 359,372 979,998 621,627 780,809 303,340 423,576 121,236 121,464 0,372 -261,606 -261,235 -680,235 -297,0 -627,-103 -329,-103 -704,-313 v 638 q 381,153 712,231 332,78 607,78 725,0 1156,-363 431,-362 431,-968 0,-288 -108,-546 -107,-257 -392,-607 -78,-91 -497,-524 Q 1991,1309 1228,531 Z"
                     id="path1129"
                     transform="scale(0.015625)" /></defs><use
                   xlink:href="#DejaVuSans-73-9"
                   id="use849" /><use
                   x="52.099609"
                   xlink:href="#DejaVuSans-74-3"
                   id="use851" /><use
                   x="91.308594"
                   xlink:href="#DejaVuSans-61-6"
                   id="use853" /><use
                   x="152.58789"
                   xlink:href="#DejaVuSans-74-3"
                   id="use855" /><use
                   x="191.79688"
                   xlink:href="#DejaVuSans-65-0"
                   id="use857" /><use
                   x="253.32031"
                   xlink:href="#DejaVuSans-32-8"
                   id="use859" /></g></g></g><g
             id="xtick_3-7"><g
               id="line2d_3-9"><g
                 id="g867"><use
                   style="stroke:#000000;stroke-width:0.8"
                   x="162.4375"
                   xlink:href="#m275af7c0e0"
                   y="116.2"
                   id="use865" /></g></g><g
               id="text_3-2"><!-- state3 --><g
                 transform="matrix(0.1,0,0,-0.1,146.59062,130.79844)"
                 id="g885"><defs
                   id="defs871"><path
                     d="m 2597,2516 q 453,-97 707,-404 255,-306 255,-756 0,-690 -475,-1069 -475,-378 -1350,-378 -293,0 -604,58 -311,58 -642,174 v 609 q 262,-153 574,-231 313,-78 654,-78 593,0 904,234 311,234 311,681 0,413 -289,645 -289,233 -804,233 h -544 v 519 h 569 q 465,0 712,186 247,186 247,536 0,359 -255,551 -254,193 -729,193 -260,0 -557,-57 -297,-56 -653,-174 v 562 q 360,100 674,150 314,50 592,50 719,0 1137,-327 419,-326 419,-882 0,-388 -222,-655 -222,-267 -631,-370 z"
                     id="path1144"
                     transform="scale(0.015625)" /></defs><use
                   xlink:href="#DejaVuSans-73-9"
                   id="use873" /><use
                   x="52.099609"
                   xlink:href="#DejaVuSans-74-3"
                   id="use875" /><use
                   x="91.308594"
                   xlink:href="#DejaVuSans-61-6"
                   id="use877" /><use
                   x="152.58789"
                   xlink:href="#DejaVuSans-74-3"
                   id="use879" /><use
                   x="191.79688"
                   xlink:href="#DejaVuSans-65-0"
                   id="use881" /><use
                   x="253.32031"
                   xlink:href="#DejaVuSans-33-0"
                   id="use883" /></g></g></g><g
             id="xtick_4-2"><g
               id="line2d_4-3"><g
                 id="g891"><use
                   style="stroke:#000000;stroke-width:0.8"
                   x="205.90814"
                   xlink:href="#m275af7c0e0"
                   y="116.2"
                   id="use889" /></g></g><g
               id="text_4-7"><!-- state4 --><g
                 transform="matrix(0.1,0,0,-0.1,190.06127,130.79844)"
                 id="g909"><defs
                   id="defs895"><path
                     d="M 2419,4116 825,1625 h 1594 z m -166,550 h 794 V 1625 h 666 V 1100 H 3047 V 0 H 2419 V 1100 H 313 v 609 z"
                     id="path1159"
                     transform="scale(0.015625)" /></defs><use
                   xlink:href="#DejaVuSans-73-9"
                   id="use897" /><use
                   x="52.099609"
                   xlink:href="#DejaVuSans-74-3"
                   id="use899" /><use
                   x="91.308594"
                   xlink:href="#DejaVuSans-61-6"
                   id="use901" /><use
                   x="152.58789"
                   xlink:href="#DejaVuSans-74-3"
                   id="use903" /><use
                   x="191.79688"
                   xlink:href="#DejaVuSans-65-0"
                   id="use905" /><use
                   x="253.32031"
                   xlink:href="#DejaVuSans-34-5"
                   id="use907" /></g></g></g><g
             id="xtick_5-9"><g
               id="line2d_5-2"><g
                 id="g915"><use
                   style="stroke:#000000;stroke-width:0.8"
                   x="249.37878"
                   xlink:href="#m275af7c0e0"
                   y="116.2"
                   id="use913" /></g></g><g
               id="text_5-2"><!-- state5 --><g
                 transform="matrix(0.1,0,0,-0.1,233.53191,130.79844)"
                 id="g933"><defs
                   id="defs919"><path
                     d="M 691,4666 H 3169 V 4134 H 1269 V 2991 q 137,47 274,70 138,23 276,23 781,0 1237,-428 457,-428 457,-1159 Q 3513,744 3044,326 2575,-91 1722,-91 1428,-91 1123,-41 819,9 494,109 v 635 q 281,-153 581,-228 300,-75 634,-75 541,0 856,284 316,284 316,772 0,487 -316,771 -315,285 -856,285 -253,0 -505,-56 -251,-56 -513,-175 z"
                     id="path1174"
                     transform="scale(0.015625)" /></defs><use
                   xlink:href="#DejaVuSans-73-9"
                   id="use921" /><use
                   x="52.099609"
                   xlink:href="#DejaVuSans-74-3"
                   id="use923" /><use
                   x="91.308594"
                   xlink:href="#DejaVuSans-61-6"
                   id="use925" /><use
                   x="152.58789"
                   xlink:href="#DejaVuSans-74-3"
                   id="use927" /><use
                   x="191.79688"
                   xlink:href="#DejaVuSans-65-0"
                   id="use929" /><use
                   x="253.32031"
                   xlink:href="#DejaVuSans-35-8"
                   id="use931" /></g></g></g></g><g
           id="matplotlib.axis_2-9"><g
             id="ytick_1-7"><g
               id="line2d_6-3"><defs
                 id="defs939"><path
                   d="M 0,0 H -3.5"
                   id="path1187"
                   style="stroke:#000000;stroke-width:0.8" /></defs><g
                 id="g943"><use
                   style="stroke:#000000;stroke-width:0.8"
                   x="47.674999"
                   xlink:href="#mdf36713bb5"
                   y="116.2"
                   id="use941" /></g></g><g
               id="text_6-6"><!-- 0.0 --><g
                 transform="matrix(0.1,0,0,-0.1,24.771875,119.99922)"
                 id="g956"><defs
                   id="defs948"><path
                     d="m 2034,4250 q -487,0 -733,-480 -245,-479 -245,-1442 0,-959 245,-1439 246,-480 733,-480 491,0 736,480 246,480 246,1439 0,963 -246,1442 -245,480 -736,480 z m 0,500 q 785,0 1199,-621 414,-620 414,-1801 0,-1178 -414,-1799 -414,-620 -1199,-620 -784,0 -1198,620 -414,621 -414,1799 0,1181 414,1801 414,621 1198,621 z"
                     id="path1193"
                     transform="scale(0.015625)" /><path
                     d="m 684,794 h 660 V 0 H 684 Z"
                     id="path1195"
                     transform="scale(0.015625)" /></defs><use
                   xlink:href="#DejaVuSans-30-1"
                   id="use950" /><use
                   x="63.623047"
                   xlink:href="#DejaVuSans-2e-2"
                   id="use952" /><use
                   x="95.410156"
                   xlink:href="#DejaVuSans-30-1"
                   id="use954" /></g></g></g><g
             id="ytick_2-9"><g
               id="line2d_7-3"><g
                 id="g962"><use
                   style="stroke:#000000;stroke-width:0.8"
                   x="47.674999"
                   xlink:href="#mdf36713bb5"
                   y="85.649277"
                   id="use960" /></g></g><g
               id="text_7-1"><!-- 0.2 --><g
                 transform="matrix(0.1,0,0,-0.1,24.771875,89.448494)"
                 id="g971"><use
                   xlink:href="#DejaVuSans-30-1"
                   id="use965" /><use
                   x="63.623047"
                   xlink:href="#DejaVuSans-2e-2"
                   id="use967" /><use
                   x="95.410156"
                   xlink:href="#DejaVuSans-32-8"
                   id="use969" /></g></g></g><g
             id="ytick_3-9"><g
               id="line2d_8-4"><g
                 id="g977"><use
                   style="stroke:#000000;stroke-width:0.8"
                   x="47.674999"
                   xlink:href="#mdf36713bb5"
                   y="55.098553"
                   id="use975" /></g></g><g
               id="text_8-7"><!-- 0.4 --><g
                 transform="matrix(0.1,0,0,-0.1,24.771875,58.897769)"
                 id="g986"><use
                   xlink:href="#DejaVuSans-30-1"
                   id="use980" /><use
                   x="63.623047"
                   xlink:href="#DejaVuSans-2e-2"
                   id="use982" /><use
                   x="95.410156"
                   xlink:href="#DejaVuSans-34-5"
                   id="use984" /></g></g></g><g
             id="ytick_4-8"><g
               id="line2d_9-4"><g
                 id="g992"><use
                   style="stroke:#000000;stroke-width:0.8"
                   x="47.674999"
                   xlink:href="#mdf36713bb5"
                   y="24.547827"
                   id="use990" /></g></g><g
               id="text_9-5"><!-- 0.6 --><g
                 transform="matrix(0.1,0,0,-0.1,24.771875,28.347045)"
                 id="g1004"><defs
                   id="defs996"><path
                     d="m 2113,2584 q -425,0 -674,-291 -248,-290 -248,-796 0,-503 248,-796 249,-292 674,-292 425,0 673,292 248,293 248,796 0,506 -248,796 -248,291 -673,291 z m 1253,1979 v -575 q -238,112 -480,171 -242,60 -480,60 -625,0 -955,-422 -329,-422 -376,-1275 184,272 462,417 279,145 613,145 703,0 1111,-427 408,-426 408,-1160 0,-719 -425,-1154 -425,-434 -1131,-434 -810,0 -1238,620 -428,621 -428,1799 0,1106 525,1764 525,658 1409,658 238,0 480,-47 242,-47 505,-140 z"
                     id="path1225"
                     transform="scale(0.015625)" /></defs><use
                   xlink:href="#DejaVuSans-30-1"
                   id="use998" /><use
                   x="63.623047"
                   xlink:href="#DejaVuSans-2e-2"
                   id="use1000" /><use
                   x="95.410156"
                   xlink:href="#DejaVuSans-36-0"
                   id="use1002" /></g></g></g><g
             id="text_10-3"><!-- Frequency --><g
               transform="matrix(0,-0.1,-0.1,0,18.692187,89.329688)"
               id="g1035"><defs
                 id="defs1015"><path
                   d="M 628,4666 H 3309 V 4134 H 1259 V 2759 H 3109 V 2228 H 1259 V 0 H 628 Z"
                   id="path1234"
                   transform="scale(0.015625)" /><path
                   d="m 2631,2963 q -97,56 -211,82 -114,27 -251,27 -488,0 -749,-317 -261,-317 -261,-911 V 0 H 581 v 3500 h 578 v -544 q 182,319 472,473 291,155 707,155 59,0 131,-8 72,-7 159,-23 z"
                   id="path1236"
                   transform="scale(0.015625)" /><path
                   d="m 947,1747 q 0,-634 261,-995 261,-361 717,-361 456,0 718,361 263,361 263,995 0,634 -263,995 -262,361 -718,361 -456,0 -717,-361 Q 947,2381 947,1747 Z M 2906,525 Q 2725,213 2448,61 2172,-91 1784,-91 1150,-91 751,415 353,922 353,1747 q 0,825 398,1331 399,506 1033,506 388,0 664,-152 277,-151 458,-463 v 531 h 575 v -4831 h -575 z"
                   id="path1238"
                   transform="scale(0.015625)" /><path
                   d="m 544,1381 v 2119 h 575 V 1403 q 0,-497 193,-746 194,-248 582,-248 465,0 735,297 271,297 271,810 v 1984 h 575 V 0 H 2900 V 538 Q 2691,219 2414,64 2138,-91 1772,-91 1169,-91 856,284 544,659 544,1381 Z m 1447,2203 z"
                   id="path1240"
                   transform="scale(0.015625)" /><path
                   d="M 3513,2113 V 0 h -575 v 2094 q 0,497 -194,743 -194,247 -581,247 -466,0 -735,-297 -269,-296 -269,-809 V 0 H 581 v 3500 h 578 v -544 q 207,316 486,472 280,156 646,156 603,0 912,-373 310,-373 310,-1098 z"
                   id="path1242"
                   transform="scale(0.015625)" /><path
                   d="m 3122,3366 v -538 q -244,135 -489,202 -245,67 -495,67 -560,0 -870,-355 -309,-354 -309,-995 0,-641 309,-996 310,-354 870,-354 250,0 495,67 245,67 489,202 V 134 Q 2881,22 2623,-34 2366,-91 2075,-91 1284,-91 818,406 353,903 353,1747 q 0,856 470,1346 471,491 1290,491 265,0 518,-55 253,-54 491,-163 z"
                   id="path1244"
                   transform="scale(0.015625)" /><path
                   d="m 2059,-325 q -243,-625 -475,-815 -231,-191 -618,-191 H 506 v 481 h 338 q 237,0 368,113 132,112 291,531 L 1606,56 191,3500 H 800 L 1894,763 2988,3500 h 609 z"
                   id="path1246"
                   transform="scale(0.015625)" /></defs><use
                 xlink:href="#DejaVuSans-46-6"
                 id="use1017" /><use
                 x="50.269531"
                 xlink:href="#DejaVuSans-72-1"
                 id="use1019" /><use
                 x="89.132812"
                 xlink:href="#DejaVuSans-65-0"
                 id="use1021" /><use
                 x="150.65625"
                 xlink:href="#DejaVuSans-71-0"
                 id="use1023" /><use
                 x="214.13281"
                 xlink:href="#DejaVuSans-75-6"
                 id="use1025" /><use
                 x="277.51172"
                 xlink:href="#DejaVuSans-65-0"
                 id="use1027" /><use
                 x="339.03516"
                 xlink:href="#DejaVuSans-6e-3"
                 id="use1029" /><use
                 x="402.41406"
                 xlink:href="#DejaVuSans-63-2"
                 id="use1031" /><use
                 x="457.39453"
                 xlink:href="#DejaVuSans-79-0"
                 id="use1033" /></g></g></g><g
           id="patch_8-6"><path
             d="M 47.675,116.2 V 10.8"
             style="fill:none;stroke:#000000;stroke-width:0.8;stroke-linecap:square;stroke-linejoin:miter"
             id="path1039" /></g><g
           id="patch_9-1"><path
             d="M 277.2,116.2 V 10.8"
             style="fill:none;stroke:#000000;stroke-width:0.8;stroke-linecap:square;stroke-linejoin:miter"
             id="path1042" /></g><g
           id="patch_10-5"><path
             d="M 47.675,116.2 H 277.2"
             style="fill:none;stroke:#000000;stroke-width:0.8;stroke-linecap:square;stroke-linejoin:miter"
             id="path1045" /></g><g
           id="patch_11-5"><path
             d="M 47.675,10.8 H 277.2"
             style="fill:none;stroke:#000000;stroke-width:0.8;stroke-linecap:square;stroke-linejoin:miter"
             id="path1048" /></g></g></g><g
       id="figure_1-4"
       transform="matrix(0.35277778,0,0,0.35277778,0.0040542,101.73195)"><g
         id="patch_1-7"><path
           d="M 0,144 H 288 V 0 H 0 Z"
           style="fill:none"
           id="path1277" /></g><g
         id="axes_1-6"><g
           id="patch_2-56"><path
             d="M 47.675,116.2 H 277.2 V 10.8 H 47.675 Z"
             style="fill:#ffffff"
             id="path1280" /></g><g
           id="patch_3-9"><path
             clip-path="url(#p57b82982bc)"
             d="M 58.107955,116.2 H 92.88447 V 72.507372 H 58.107955 Z"
             style="fill:#1f77b4"
             id="path1283" /></g><g
           id="patch_4-3"><path
             clip-path="url(#p57b82982bc)"
             d="m 101.5786,116.2 h 34.77651 V 59.533498 H 101.5786 Z"
             style="fill:#1f77b4"
             id="path1286" /></g><g
           id="patch_5-7"><path
             clip-path="url(#p57b82982bc)"
             d="m 145.04924,116.2 h 34.77652 v -8.52365 h -34.77652 z"
             style="fill:#1f77b4"
             id="path1289" /></g><g
           id="patch_6-4"><path
             clip-path="url(#p57b82982bc)"
             d="m 188.51989,116.2 h 34.77651 v -9.10412 h -34.77651 z"
             style="fill:#1f77b4"
             id="path1292" /></g><g
           id="patch_7-5"><path
             clip-path="url(#p57b82982bc)"
             d="m 231.99053,116.2 h 34.77651 V 89.972203 h -34.77651 z"
             style="fill:#1f77b4"
             id="path1295" /></g><g
           id="matplotlib.axis_1-2"><g
             id="xtick_1-5"><g
               id="line2d_1-4"><defs
                 id="defs1299"><path
                   d="M 0,0 V 3.5"
                   id="path1588"
                   style="stroke:#000000;stroke-width:0.8" /></defs><g
                 id="g1303"><use
                   style="stroke:#000000;stroke-width:0.8"
                   x="75.496208"
                   xlink:href="#mda1a978f7c"
                   y="116.2"
                   id="use1301" /></g></g><g
               id="text_1-7"><!-- state1 --><g
                 transform="matrix(0.1,0,0,-0.1,59.649337,130.79844)"
                 id="g1325"><defs
                   id="defs1311"><path
                     d="m 2834,3397 v -544 q -243,125 -506,187 -262,63 -544,63 -428,0 -642,-131 -214,-131 -214,-394 0,-200 153,-314 153,-114 616,-217 l 197,-44 q 612,-131 870,-370 258,-239 258,-667 0,-488 -386,-773 Q 2250,-91 1575,-91 1294,-91 989,-36 684,19 347,128 v 594 q 319,-166 628,-249 309,-82 613,-82 406,0 624,139 219,139 219,392 0,234 -158,359 -157,125 -692,241 l -200,47 q -534,112 -772,345 -237,233 -237,639 0,494 350,762 350,269 994,269 318,0 599,-47 282,-46 519,-140 z"
                     id="path1594"
                     transform="scale(0.015625)" /><path
                     d="M 1172,4494 V 3500 H 2356 V 3053 H 1172 V 1153 q 0,-428 117,-550 117,-122 477,-122 h 590 V 0 H 1766 Q 1100,0 847,248 594,497 594,1153 V 3053 H 172 v 447 h 422 v 994 z"
                     id="path1596"
                     transform="scale(0.015625)" /><path
                     d="m 2194,1759 q -697,0 -966,-159 -269,-159 -269,-544 0,-306 202,-486 202,-179 548,-179 479,0 768,339 289,339 289,901 v 128 z m 1147,238 V 0 H 2766 V 531 Q 2569,213 2275,61 1981,-91 1556,-91 q -537,0 -855,302 -317,302 -317,808 0,590 395,890 396,300 1180,300 h 807 v 57 q 0,397 -261,614 -261,217 -733,217 -300,0 -585,-72 -284,-72 -546,-216 v 532 q 315,122 612,182 297,61 578,61 760,0 1135,-394 375,-393 375,-1193 z"
                     id="path1598"
                     transform="scale(0.015625)" /><path
                     d="M 3597,1894 V 1613 H 953 q 38,-594 358,-905 320,-311 892,-311 331,0 642,81 311,81 618,244 V 178 Q 3153,47 2828,-22 2503,-91 2169,-91 1331,-91 842,396 353,884 353,1716 q 0,859 464,1363 464,505 1252,505 706,0 1117,-455 411,-454 411,-1235 z m -575,169 q -6,471 -264,752 -258,282 -683,282 -481,0 -770,-272 -289,-272 -333,-766 z"
                     id="path1600"
                     transform="scale(0.015625)" /><path
                     d="M 794,531 H 1825 V 4091 L 703,3866 v 575 l 1116,225 h 631 V 531 H 3481 V 0 H 794 Z"
                     id="path1602"
                     transform="scale(0.015625)" /></defs><use
                   xlink:href="#DejaVuSans-73-4"
                   id="use1313" /><use
                   x="52.099609"
                   xlink:href="#DejaVuSans-74-4"
                   id="use1315" /><use
                   x="91.308594"
                   xlink:href="#DejaVuSans-61-3"
                   id="use1317" /><use
                   x="152.58789"
                   xlink:href="#DejaVuSans-74-4"
                   id="use1319" /><use
                   x="191.79688"
                   xlink:href="#DejaVuSans-65-07"
                   id="use1321" /><use
                   x="253.32031"
                   xlink:href="#DejaVuSans-31-8"
                   id="use1323" /></g></g></g><g
             id="xtick_2-6"><g
               id="line2d_2-8"><g
                 id="g1331"><use
                   style="stroke:#000000;stroke-width:0.8"
                   x="118.96686"
                   xlink:href="#mda1a978f7c"
                   y="116.2"
                   id="use1329" /></g></g><g
               id="text_2-8"><!-- state2 --><g
                 transform="matrix(0.1,0,0,-0.1,103.11998,130.79844)"
                 id="g1349"><defs
                   id="defs1335"><path
                     d="M 1228,531 H 3431 V 0 H 469 v 531 q 359,372 979,998 621,627 780,809 303,340 423,576 121,236 121,464 0,372 -261,606 -261,235 -680,235 -297,0 -627,-103 -329,-103 -704,-313 v 638 q 381,153 712,231 332,78 607,78 725,0 1156,-363 431,-362 431,-968 0,-288 -108,-546 -107,-257 -392,-607 -78,-91 -497,-524 Q 1991,1309 1228,531 Z"
                     id="path1617"
                     transform="scale(0.015625)" /></defs><use
                   xlink:href="#DejaVuSans-73-4"
                   id="use1337" /><use
                   x="52.099609"
                   xlink:href="#DejaVuSans-74-4"
                   id="use1339" /><use
                   x="91.308594"
                   xlink:href="#DejaVuSans-61-3"
                   id="use1341" /><use
                   x="152.58789"
                   xlink:href="#DejaVuSans-74-4"
                   id="use1343" /><use
                   x="191.79688"
                   xlink:href="#DejaVuSans-65-07"
                   id="use1345" /><use
                   x="253.32031"
                   xlink:href="#DejaVuSans-32-4"
                   id="use1347" /></g></g></g><g
             id="xtick_3-3"><g
               id="line2d_3-1"><g
                 id="g1355"><use
                   style="stroke:#000000;stroke-width:0.8"
                   x="162.4375"
                   xlink:href="#mda1a978f7c"
                   y="116.2"
                   id="use1353" /></g></g><g
               id="text_3-4"><!-- state3 --><g
                 transform="matrix(0.1,0,0,-0.1,146.59062,130.79844)"
                 id="g1373"><defs
                   id="defs1359"><path
                     d="m 2597,2516 q 453,-97 707,-404 255,-306 255,-756 0,-690 -475,-1069 -475,-378 -1350,-378 -293,0 -604,58 -311,58 -642,174 v 609 q 262,-153 574,-231 313,-78 654,-78 593,0 904,234 311,234 311,681 0,413 -289,645 -289,233 -804,233 h -544 v 519 h 569 q 465,0 712,186 247,186 247,536 0,359 -255,551 -254,193 -729,193 -260,0 -557,-57 -297,-56 -653,-174 v 562 q 360,100 674,150 314,50 592,50 719,0 1137,-327 419,-326 419,-882 0,-388 -222,-655 -222,-267 -631,-370 z"
                     id="path1632"
                     transform="scale(0.015625)" /></defs><use
                   xlink:href="#DejaVuSans-73-4"
                   id="use1361" /><use
                   x="52.099609"
                   xlink:href="#DejaVuSans-74-4"
                   id="use1363" /><use
                   x="91.308594"
                   xlink:href="#DejaVuSans-61-3"
                   id="use1365" /><use
                   x="152.58789"
                   xlink:href="#DejaVuSans-74-4"
                   id="use1367" /><use
                   x="191.79688"
                   xlink:href="#DejaVuSans-65-07"
                   id="use1369" /><use
                   x="253.32031"
                   xlink:href="#DejaVuSans-33-9"
                   id="use1371" /></g></g></g><g
             id="xtick_4-20"><g
               id="line2d_4-6"><g
                 id="g1379"><use
                   style="stroke:#000000;stroke-width:0.8"
                   x="205.90814"
                   xlink:href="#mda1a978f7c"
                   y="116.2"
                   id="use1377" /></g></g><g
               id="text_4-8"><!-- state4 --><g
                 transform="matrix(0.1,0,0,-0.1,190.06127,130.79844)"
                 id="g1397"><defs
                   id="defs1383"><path
                     d="M 2419,4116 825,1625 h 1594 z m -166,550 h 794 V 1625 h 666 V 1100 H 3047 V 0 H 2419 V 1100 H 313 v 609 z"
                     id="path1647"
                     transform="scale(0.015625)" /></defs><use
                   xlink:href="#DejaVuSans-73-4"
                   id="use1385" /><use
                   x="52.099609"
                   xlink:href="#DejaVuSans-74-4"
                   id="use1387" /><use
                   x="91.308594"
                   xlink:href="#DejaVuSans-61-3"
                   id="use1389" /><use
                   x="152.58789"
                   xlink:href="#DejaVuSans-74-4"
                   id="use1391" /><use
                   x="191.79688"
                   xlink:href="#DejaVuSans-65-07"
                   id="use1393" /><use
                   x="253.32031"
                   xlink:href="#DejaVuSans-34-9"
                   id="use1395" /></g></g></g><g
             id="xtick_5-2"><g
               id="line2d_5-6"><g
                 id="g1403"><use
                   style="stroke:#000000;stroke-width:0.8"
                   x="249.37878"
                   xlink:href="#mda1a978f7c"
                   y="116.2"
                   id="use1401" /></g></g><g
               id="text_5-6"><!-- state5 --><g
                 transform="matrix(0.1,0,0,-0.1,233.53191,130.79844)"
                 id="g1421"><defs
                   id="defs1407"><path
                     d="M 691,4666 H 3169 V 4134 H 1269 V 2991 q 137,47 274,70 138,23 276,23 781,0 1237,-428 457,-428 457,-1159 Q 3513,744 3044,326 2575,-91 1722,-91 1428,-91 1123,-41 819,9 494,109 v 635 q 281,-153 581,-228 300,-75 634,-75 541,0 856,284 316,284 316,772 0,487 -316,771 -315,285 -856,285 -253,0 -505,-56 -251,-56 -513,-175 z"
                     id="path1662"
                     transform="scale(0.015625)" /></defs><use
                   xlink:href="#DejaVuSans-73-4"
                   id="use1409" /><use
                   x="52.099609"
                   xlink:href="#DejaVuSans-74-4"
                   id="use1411" /><use
                   x="91.308594"
                   xlink:href="#DejaVuSans-61-3"
                   id="use1413" /><use
                   x="152.58789"
                   xlink:href="#DejaVuSans-74-4"
                   id="use1415" /><use
                   x="191.79688"
                   xlink:href="#DejaVuSans-65-07"
                   id="use1417" /><use
                   x="253.32031"
                   xlink:href="#DejaVuSans-35-4"
                   id="use1419" /></g></g></g></g><g
           id="matplotlib.axis_2-95"><g
             id="ytick_1-0"><g
               id="line2d_6-4"><defs
                 id="defs1427"><path
                   d="M 0,0 H -3.5"
                   id="path1675"
                   style="stroke:#000000;stroke-width:0.8" /></defs><g
                 id="g1431"><use
                   style="stroke:#000000;stroke-width:0.8"
                   x="47.674999"
                   xlink:href="#m08d42164cf"
                   y="116.2"
                   id="use1429" /></g></g><g
               id="text_6-8"><!-- 0.0 --><g
                 transform="matrix(0.1,0,0,-0.1,24.771875,119.99922)"
                 id="g1444"><defs
                   id="defs1436"><path
                     d="m 2034,4250 q -487,0 -733,-480 -245,-479 -245,-1442 0,-959 245,-1439 246,-480 733,-480 491,0 736,480 246,480 246,1439 0,963 -246,1442 -245,480 -736,480 z m 0,500 q 785,0 1199,-621 414,-620 414,-1801 0,-1178 -414,-1799 -414,-620 -1199,-620 -784,0 -1198,620 -414,621 -414,1799 0,1181 414,1801 414,621 1198,621 z"
                     id="path1681"
                     transform="scale(0.015625)" /><path
                     d="m 684,794 h 660 V 0 H 684 Z"
                     id="path1683"
                     transform="scale(0.015625)" /></defs><use
                   xlink:href="#DejaVuSans-30-7"
                   id="use1438" /><use
                   x="63.623047"
                   xlink:href="#DejaVuSans-2e-1"
                   id="use1440" /><use
                   x="95.410156"
                   xlink:href="#DejaVuSans-30-7"
                   id="use1442" /></g></g></g><g
             id="ytick_2-7"><g
               id="line2d_7-2"><g
                 id="g1450"><use
                   style="stroke:#000000;stroke-width:0.8"
                   x="47.674999"
                   xlink:href="#m08d42164cf"
                   y="85.649277"
                   id="use1448" /></g></g><g
               id="text_7-7"><!-- 0.2 --><g
                 transform="matrix(0.1,0,0,-0.1,24.771875,89.448494)"
                 id="g1459"><use
                   xlink:href="#DejaVuSans-30-7"
                   id="use1453" /><use
                   x="63.623047"
                   xlink:href="#DejaVuSans-2e-1"
                   id="use1455" /><use
                   x="95.410156"
                   xlink:href="#DejaVuSans-32-4"
                   id="use1457" /></g></g></g><g
             id="ytick_3-2"><g
               id="line2d_8-2"><g
                 id="g1465"><use
                   style="stroke:#000000;stroke-width:0.8"
                   x="47.674999"
                   xlink:href="#m08d42164cf"
                   y="55.098553"
                   id="use1463" /></g></g><g
               id="text_8-6"><!-- 0.4 --><g
                 transform="matrix(0.1,0,0,-0.1,24.771875,58.897769)"
                 id="g1474"><use
                   xlink:href="#DejaVuSans-30-7"
                   id="use1468" /><use
                   x="63.623047"
                   xlink:href="#DejaVuSans-2e-1"
                   id="use1470" /><use
                   x="95.410156"
                   xlink:href="#DejaVuSans-34-9"
                   id="use1472" /></g></g></g><g
             id="ytick_4-1"><g
               id="line2d_9-0"><g
                 id="g1480"><use
                   style="stroke:#000000;stroke-width:0.8"
                   x="47.674999"
                   xlink:href="#m08d42164cf"
                   y="24.547827"
                   id="use1478" /></g></g><g
               id="text_9-6"><!-- 0.6 --><g
                 transform="matrix(0.1,0,0,-0.1,24.771875,28.347045)"
                 id="g1492"><defs
                   id="defs1484"><path
                     d="m 2113,2584 q -425,0 -674,-291 -248,-290 -248,-796 0,-503 248,-796 249,-292 674,-292 425,0 673,292 248,293 248,796 0,506 -248,796 -248,291 -673,291 z m 1253,1979 v -575 q -238,112 -480,171 -242,60 -480,60 -625,0 -955,-422 -329,-422 -376,-1275 184,272 462,417 279,145 613,145 703,0 1111,-427 408,-426 408,-1160 0,-719 -425,-1154 -425,-434 -1131,-434 -810,0 -1238,620 -428,621 -428,1799 0,1106 525,1764 525,658 1409,658 238,0 480,-47 242,-47 505,-140 z"
                     id="path1713"
                     transform="scale(0.015625)" /></defs><use
                   xlink:href="#DejaVuSans-30-7"
                   id="use1486" /><use
                   x="63.623047"
                   xlink:href="#DejaVuSans-2e-1"
                   id="use1488" /><use
                   x="95.410156"
                   xlink:href="#DejaVuSans-36-1"
                   id="use1490" /></g></g></g><g
             id="text_10-5"><!-- Frequency --><g
               transform="matrix(0,-0.1,-0.1,0,18.692187,89.329688)"
               id="g1523"><defs
                 id="defs1503"><path
                   d="M 628,4666 H 3309 V 4134 H 1259 V 2759 H 3109 V 2228 H 1259 V 0 H 628 Z"
                   id="path1722"
                   transform="scale(0.015625)" /><path
                   d="m 2631,2963 q -97,56 -211,82 -114,27 -251,27 -488,0 -749,-317 -261,-317 -261,-911 V 0 H 581 v 3500 h 578 v -544 q 182,319 472,473 291,155 707,155 59,0 131,-8 72,-7 159,-23 z"
                   id="path1724"
                   transform="scale(0.015625)" /><path
                   d="m 947,1747 q 0,-634 261,-995 261,-361 717,-361 456,0 718,361 263,361 263,995 0,634 -263,995 -262,361 -718,361 -456,0 -717,-361 Q 947,2381 947,1747 Z M 2906,525 Q 2725,213 2448,61 2172,-91 1784,-91 1150,-91 751,415 353,922 353,1747 q 0,825 398,1331 399,506 1033,506 388,0 664,-152 277,-151 458,-463 v 531 h 575 v -4831 h -575 z"
                   id="path1726"
                   transform="scale(0.015625)" /><path
                   d="m 544,1381 v 2119 h 575 V 1403 q 0,-497 193,-746 194,-248 582,-248 465,0 735,297 271,297 271,810 v 1984 h 575 V 0 H 2900 V 538 Q 2691,219 2414,64 2138,-91 1772,-91 1169,-91 856,284 544,659 544,1381 Z m 1447,2203 z"
                   id="path1728"
                   transform="scale(0.015625)" /><path
                   d="M 3513,2113 V 0 h -575 v 2094 q 0,497 -194,743 -194,247 -581,247 -466,0 -735,-297 -269,-296 -269,-809 V 0 H 581 v 3500 h 578 v -544 q 207,316 486,472 280,156 646,156 603,0 912,-373 310,-373 310,-1098 z"
                   id="path1730"
                   transform="scale(0.015625)" /><path
                   d="m 3122,3366 v -538 q -244,135 -489,202 -245,67 -495,67 -560,0 -870,-355 -309,-354 -309,-995 0,-641 309,-996 310,-354 870,-354 250,0 495,67 245,67 489,202 V 134 Q 2881,22 2623,-34 2366,-91 2075,-91 1284,-91 818,406 353,903 353,1747 q 0,856 470,1346 471,491 1290,491 265,0 518,-55 253,-54 491,-163 z"
                   id="path1732"
                   transform="scale(0.015625)" /><path
                   d="m 2059,-325 q -243,-625 -475,-815 -231,-191 -618,-191 H 506 v 481 h 338 q 237,0 368,113 132,112 291,531 L 1606,56 191,3500 H 800 L 1894,763 2988,3500 h 609 z"
                   id="path1734"
                   transform="scale(0.015625)" /></defs><use
                 xlink:href="#DejaVuSans-46-9"
                 id="use1505" /><use
                 x="50.269531"
                 xlink:href="#DejaVuSans-72-4"
                 id="use1507" /><use
                 x="89.132812"
                 xlink:href="#DejaVuSans-65-07"
                 id="use1509" /><use
                 x="150.65625"
                 xlink:href="#DejaVuSans-71-9"
                 id="use1511" /><use
                 x="214.13281"
                 xlink:href="#DejaVuSans-75-0"
                 id="use1513" /><use
                 x="277.51172"
                 xlink:href="#DejaVuSans-65-07"
                 id="use1515" /><use
                 x="339.03516"
                 xlink:href="#DejaVuSans-6e-9"
                 id="use1517" /><use
                 x="402.41406"
                 xlink:href="#DejaVuSans-63-1"
                 id="use1519" /><use
                 x="457.39453"
                 xlink:href="#DejaVuSans-79-7"
                 id="use1521" /></g></g></g><g
           id="patch_8-7"><path
             d="M 47.675,116.2 V 10.8"
             style="fill:none;stroke:#000000;stroke-width:0.8;stroke-linecap:square;stroke-linejoin:miter"
             id="path1527" /></g><g
           id="patch_9-11"><path
             d="M 277.2,116.2 V 10.8"
             style="fill:none;stroke:#000000;stroke-width:0.8;stroke-linecap:square;stroke-linejoin:miter"
             id="path1530" /></g><g
           id="patch_10-59"><path
             d="M 47.675,116.2 H 277.2"
             style="fill:none;stroke:#000000;stroke-width:0.8;stroke-linecap:square;stroke-linejoin:miter"
             id="path1533" /></g><g
           id="patch_11-7"><path
             d="M 47.675,10.8 H 277.2"
             style="fill:none;stroke:#000000;stroke-width:0.8;stroke-linecap:square;stroke-linejoin:miter"
             id="path1536" /></g></g></g><text
       xml:space="preserve"
       transform="matrix(0.26458333,0,0,0.26458333,105.30147,-21.397932)"
       id="text2383"
       style="font-size:16px;line-height:1.25;font-family:Arial;-inkscape-font-specification:'Arial, Normal';letter-spacing:0px;word-spacing:0px;writing-mode:lr-tb;white-space:pre;shape-inside:url(#rect2385)"><tspan
         x="-331.57812"
         y="110.66598"
         id="tspan1605">Mismatch 1</tspan></text><text
       xml:space="preserve"
       transform="matrix(0.26458333,0,0,0.26458333,105.30147,30.057515)"
       id="text2383-6"
       style="font-size:16px;line-height:1.25;font-family:Arial;-inkscape-font-specification:'Arial, Normal';letter-spacing:0px;word-spacing:0px;writing-mode:lr-tb;white-space:pre;shape-inside:url(#rect2385-3);display:inline;stroke-linecap:butt;stroke-linejoin:round"><tspan
         x="-331.57812"
         y="110.66598"
         id="tspan1607">Mismatch 2</tspan></text><text
       xml:space="preserve"
       transform="matrix(0.26458333,0,0,0.26458333,105.28597,80.667363)"
       id="text2383-5"
       style="font-size:16px;line-height:1.25;font-family:Arial;-inkscape-font-specification:'Arial, Normal';letter-spacing:0px;word-spacing:0px;writing-mode:lr-tb;white-space:pre;shape-inside:url(#rect2385-7);display:inline;stroke-linecap:butt;stroke-linejoin:round"><tspan
         x="-331.57812"
         y="110.66598"
         id="tspan1609">Mismatch 3</tspan></text></g></svg>
